<svg xmlns="http://www.w3.org/2000/svg" width="1000" height="547"><path d="M914.832 294.6875h-.0039l-4.6093.004c-1.1368.0038-2.1993.3437-3.2266 1.3905-1.2734 1.3008-1.4649 2.9727-1.1563 4.6016 3.7383 19.9531 5.6641 39.4297 6.293 57.8008h-57.8594c-1.3086 0-2.3906.461-3.2539 1.3164-.9101.9023-1.4726 2.0508-1.4726 3.9297l.0078 16.6093c0 3.3047 2.2773 5.1524 5.0195 5.1524h57.539c-.4296 12.6875-1.4218 24.6172-2.7734 35.289-1.039 8.172-2.2695 15.832-3.5703 22.797-.25 1.9921.2774 3.246 1.2383 4.3124 1.1523 1.1524 2.4922 1.4297 4.0703 1.4258l5.7422-.0078 8.9258.0078c2.2773.004 3.9648-1.0469 4.9726-2.082 1.4883-1.5274 1.7422-3.164 1.9063-4.1055 1.168-6.8125 2.2852-14.2695 3.2148-22.207 1.2579-10.7149 2.1758-22.6914 2.5743-35.4297h56.6992c2.746 0 5.0234-1.8477 5.0234-5.1524l.004-16.6093c.0038-1.879-.5587-3.0274-1.4688-3.9297-.8672-.8555-1.9493-1.3164-3.254-1.3164H938.422c-.3477-10.9805-1.1211-22.3438-2.4375-33.9883a409.4476 409.4476 0 0 0-3.4063-23.8281c-.2851-1.6328-.8476-3.2578-2.5234-4.5625-1.1133-.8672-2.6563-1.4102-3.6992-1.414l-7.7852-.004h-.0351ZM532.3203 0c-37.5508 0-74.2734 4.6094-109.6797 13.4922-29.6289 7.4336-57.9726 17.8633-84.8125 31.0703-9.9375 4.8906-19.2969 10.004-28.1953 15.289-17.336 10.3008-33.1289 21.297-47.9258 33.2579-11.457 9.2656-21.8125 18.664-30.7578 27.5312-5.9726 5.918-11.4844 11.6758-17.2695 18.1446-.5274.5859-1.0195 1.1289-1.5313 1.703-.9101 1.0196-2.0039 2.59-1.4609 4.7462.1719.6953.5547 1.3281 1.0937 1.8437.9961.875 2.1524 1.082 3.1954 1.004 1.2343-.0977 2.625-.8282 3.4062-1.4102.5195-.3946 1.0234-.8516 1.504-1.3438 1.7734-1.8203 3.4062-3.6133 5.121-5.3945 3.0742-3.1836 6.211-6.3164 9.4453-9.4492 12.2188-11.832 27.4766-24.7383 44.125-36.5547 9.0156-6.3945 18.4844-12.6016 28.789-18.6524 8.4571-4.9687 24.4024-13.8945 44.5352-22.5585 17.8399-7.6797 35.1563-13.6368 51.4336-18.2579 11.75-3.3359 23.9063-6.25 36.1797-8.6054 10.8906-2.0899 21.9102-3.7696 32.9922-5.0625 17.0274-1.9844 34.0156-2.914 51.0078-2.914 39.418 0 79.6719 5.3046 118.3399 16.1288 13.9726 3.9102 27.582 8.4805 40.8476 13.711 17.2149 6.789 33.0547 14.246 49.9649 23.7304 31.1601 17.4688 58.9297 38.7031 83.9414 63.9492 12.1523 12.2657 22.664 24.6211 31.7383 36.6993 11.328 15.0742 20.4296 29.707 27.6796 43.0585 4.629 8.5313 8.5 16.5508 11.6485 23.5782 6.6328 14.8203 10.586 26.9297 10.586 26.9297.414 1.1484.7265 1.6289 1.2226 2.3789 1.207 1.6093 3.1328 2.5508 5.0937 2.5468l16.1133-.0039c1.2148 0 1.7656-.246 2.4258-.6289.6055-.3515 1.4492-1.1601 1.8242-2.0312.4375-1.0235.5547-2.3985.1563-3.6524-5.797-17.328-13.7149-35.5234-23.0899-53.0117-14.6094-27.25-36.7695-60.586-69.0703-92.3008-28.5234-28.0078-57.2773-47.7265-81.2852-61.5039-29.8437-17.1172-61.5039-30.453-95.078-40.0664C616.1327 5.8046 574.1444 0 532.3202 0Zm-73.9297 370.1797c.5586.0781.6875.1015 1.2227.1523 6.2148.8516 11.0508 1.7266 15.4062 2.8399 5.0274 1.2812 9.297 2.8554 12.4258 4.5937 2.3633 1.3125 4.2266 2.7188 5.7656 4.2696.875.8828 1.672 1.875 2.3868 2.8984 1.078 1.5469 2.5859 4.3398 3.3515 6.0976.6406 1.4649 1.0352 2.5938 1.1758 3.0157.7578 2.2656 1.293 4.6406 1.6055 7.0625.5273 4.0703.4804 7.8906-.0977 11.5117-.5937 3.7226-1.8672 9.207-6.1758 14.9648-3.668 4.9063-8.789 8.8282-14.8086 11.7188-7.25 3.5078-14.9023 5.25-22.5625 6.1289-14.3242 1.5781-29.9609-1.2695-42.7695-7.6328-4.086-2.0547-7.6523-4.1758-10.8516-6.5547-3.1171-2.3203-6.0742-4.9649-8.2812-7.9844-3.4805-4.7734-4.7969-8.9883-4.7695-13.1992.0234-3.996 1.2968-7.629 3.2265-10.3438 2.2031-3.328 5.7696-5.7226 9.8164-7.4023 6.832-2.836 15.2461-3.625 22.0352-3.3867 8.2422.3047 23.0469 2.875 30.8789 5.6484 2.164.789 10.1523 3.8946 11.5508 5.3164.9922.9922 1.6289 2.4453 1.1953 3.7657-1.8047 5.496-15.086 8.371-18.9024 8.9296-10.2734 1.5782-15.6875-2.3125-27.3632-6.918-2.9024-1.121-6.7696-2.3906-9.7188-2.6718-2.9492-.2695-6.246.0703-8.7656 1.4219-2.5664 1.3789-3.9258 3.6797-3.8867 6.1562.039 2.332 1.875 4.457 5.703 6.1328 1.711.7383 3.336 1.3477 4.918 1.8438 4.2032 1.3164 8.1094 1.8555 12.582 1.9101 8.7657.1446 18.047-.4843 26.9806-2.3437 9.6328-2.004 18.8593-5.4453 26.5937-10.9258 2.0078-1.4492 4.0195-3.5586 4.043-6.2578.0781-5.418-9.4375-8.7266-9.4375-8.7266-8.379-3.5078-22.461-5.3203-32.6446-6.4218-1.9921-.2149-3.8359-.4336-5.4609-.6016-1.8086-.1563-3.9336-.3438-5.9805-.5234-1.5742-.1407-3.0039-.2422-4.7851-.375-1.6328-.1211-3.75-.2852-5.336-.4258-3.5156-.3125-6.6601-.6172-9.1132-.879-1.2383-.1288-4.4922-.5038-7.797-1.0859-2.328-.4101-4.6679-.8593-6.9062-1.7539-2.082-.832-4.1992-2.1836-5.8789-3.9726-1.4804-1.5742-2.6093-3.4336-2.9687-5.3047-1.7305-6.8164.4844-15.2422 4.2734-20.711 9.9727-14.3007 33.2735-19.7148 50.6758-21.8515 16.8399-2.1094 44.082-2.086 60.6445 6.7148 2.543 1.3516 3.8672 2.6485 3.332 5.3711-1.0937 5.1367-4.9374 8.4453-9.6171 9.8946-4.8828 1.5507-15.0352 2.1523-19.4844 2.4335-19.9453 1.1211-44.086.5196-63.0898 5.707-1.4727.4337-4.043 1.1212-4.8828 2.0626-1.5938 1.7304.039 2.8008 2.1953 3.4844 1.5859.5 3.6172.8398 6.3515 1.246Zm147.1055 54.039c-3.7148 8.7227-13.539 18.0625-25.6992 12.2618-12.0352-5.8008-31.1953-45.004-31.1953-45.004s-7.2735-14.6288-8.6485-14.25c0 0-1.5781-2.8476-2.5468 13.129-.9922 15.9023.207 46.914-6.1563 51.7968-6.004 4.8868-13.2812 2.9532-17.0703-2.7734-3.4102-5.6484-4.836-19.0273-2.9766-42.5352 2.211-23.5585 7.6836-48.6171 14.6797-56.4296 6.9727-7.7344 12.5664-2.1094 14.7578-.0743 0 0 9.336 8.4688 24.754 33.3282l2.6992 4.6015s13.9921 23.4844 15.4687 23.4336c0 0 1.1445 1.0664 2.164.2774 1.4727-.4063.8633-7.9375.8633-7.9375s-2.8984-25.5938-15.6484-68.918c0 0-1.9336-5.3945-.6367-10.457 1.3008-5.1133 6.414-2.7227 6.414-2.7227s19.793 9.9492 29.4102 42.1836c9.543 32.2305 3.1328 61.3125-.6328 70.0898m110.2812-70.578c-13.9921 3.2343-50.8007 5.0155-50.8007 5.0155l-4.6563 14.5547s18.3945-1.578 31.8008-.1797c0 0 4.3242-.5078 4.832 4.9375.1797 5.0625-.4336 10.4844-.4336 10.4844s-.2773 3.2813-4.9336 4.1211c-5.039.8633-39.6601 2.1875-39.6601 2.1875l-5.5938 18.957s-2.086 4.4024 2.5938 3.1329c4.3242-1.1485 40.5976-7.9649 45.3047-6.9727 5.0898 1.2461 10.6836 7.9883 9.0547 14.1484-1.9297 7.6329-38.129 30.711-60.1602 29.1094 0 0-11.6016.7383-21.3945-14.8867-9.1055-14.9102 3.461-43.1328 3.461-43.1328s-5.75-13.1524-1.5782-17.6328c0 0 2.4922-2.2383 9.7422-2.7461l8.8554-18.375s-10.1015.6875-16.1054-6.7422c-5.6211-7.0469-6.0782-10.2813-1.7813-12.2383 4.582-2.2656 46.6797-9.9492 75.629-8.9844 0 0 10.0741-.9922 18.8007 16.4883 0 0 4.2227 7.0508-2.9766 8.754m95.1875 9.8866s-.1367-1.0742-.664-2.1484c-1.1016-2.2695-3.9336-4.5508-10.836 3.2188-8.7265 9.6406-24.496 27.7539-37.1914 52.3554 13.3282-1.5 26.1758-8.7265 30.043-12.414 3.7227-3.3047 10.3672-9.9454 14.7031-18.9922 2.3946-4.9883 4.1016-10.711 4.211-17.0078.0273-1.6329-.0664-3.3047-.2657-5.0118m6.9922 41.422c-9.0039 15.7226-34.4414 48.6132-68.2265 40.8554-4.1524 10.0586-8.0547 20.168-11.5977 31.0039-5.9805 18.2969-10.9531 38.6758-14.3242 64.3984 0 0-1.1719 7.961-7.7852 5.1914-5.1953-1.8125-13.0507-9.0273-17.1718-19.4218-1.086-2.7422-1.8828-5.6094-2.336-8.75-.586-4.9141-.5117-10.7618.254-17.2227 1.371-11.6094 4.8671-25.496 10.3007-40.8984 3.7383-10.5977 8.3945-21.9102 13.918-33.6875-5.2422-8.547-8.8281-20.7618-5.7774-38.1368 0 0 1.4805-10.6132 8.8633-25.1562 5.4922-10.8203 14.254-23.8164 28.082-36.2305 0 0 3.8907-3.3672 6.129-2.3242 2.4921 1.043 1.3671 11.5313-.6172 16.6445-2.0352 5.0899-16.4844 30.0977-16.4844 30.0977s-9.004 16.8672-6.461 30.1719c7.9102-12.1407 20.4727-30.0352 34.0782-44.039 11.7422-12.0821 24.2578-21.2813 35.1914-21.379 6.3633-.0586 12.668 3.0234 16.961 10.9258 3.4921 6.4219 5.1445 15.043 5.1445 24.039 0 11.8555-2.8477 24.504-8.1407 33.918m-468.7617-96.2656s-2.5781 4.6445-3.1875 5.5c-.2851.4648-1.2226 1.7539-2.375 2.7383-.8945.7656-1.8515 1.3008-3.1289 1.418-1.3164.121-2.6562-.3672-4.086-1.5587-3.4335-3.0546-5.3984-7.7109-5.5507-12.293-.0742-2.0077.25-4.2226-.1328-5.9023-.332-1.496-1.2696-3.0351-2.3086-4.5547-.9336-1.371-1.9492-2.6757-2.6719-3.9648-.6445-1.1484-1.1719-2.2969-1.5976-3.3594-1.3555-3.375-1.7266-6.3593-1.8633-9.1054-.6094-11.2461 5.3164-21.6836 13.0273-29.8516 7.7813-8.293 17.836-15.1016 28.875-19.7852 10.457-4.3984 25.8399-7.4023 37.3125-3.4336 3.7422 1.297 8.9297 4.4766 11.5508 7.7852.5586.711 1.0195 1.4492 1.5781 1.8047.5078.332 1.832.461 2.8985.664 3.664.6368 8.9296 3.4102 11.0937 5.2383 4.2969 3.7422 6.664 7.3047 7.7578 12.4688 1.0313 4.8476.1914 10.3476-1.7617 15.2539-2.0703 5.1914-5.3398 9.9453-8.8477 13.5195-11.6757 11.957-23.2265 20.379-38.1835 26.2305-4.7696 1.8672-11.1602 3.4023-16.1602 3.9844-2.6367.3086-5.1016.4023-7.4805.3047-2.625-.1055-5.2383-.4493-7.457-.8555 0 0-5.5117-1.125-7.3008-2.2461Zm24.8086-18.2422c5.957-.5742 11.1484-1.6328 15.9453-3.1523 2.5977-.8243 5.2031-1.875 7.7344-3.0938 5.5312-2.664 11.1758-6.5508 14.7656-9.8047 1.9024-1.7226 3.5508-3.4883 4.8555-5.2344 2.6094-3.4765 4.1562-7.3984 3.664-11.5273-.4062-3.457-2.668-6.0781-5.543-7.3008-6.3554-2.7656-13.5273.5196-18.7226 3.5235-3.7383 2.1718-9.3945 6.3515-14.664 10.8398-6.2422 5.3203-12.1875 11.3477-15.9141 16.168-2.1133 2.8867-4.2734 5.7343-6.2383 8.7226.3047.832 7.254 1.2188 11.0938.9649m-31.3086-9.4453c2.0312-3.2149 4.3984-6.3594 6.6719-9.3243 2.5195-3.2851 6.8867-8.2343 8.5976-10.0468 3.8086-4.0274 7.8594-7.961 11.3438-10.9453 2.0859-1.754 4.4492-3.7618 4.4492-3.7618s-1.668.0313-3.832.461c-1.047.2031-2.8868.6914-4.3868 1.2422-1.8242.668-3.3242 1.2968-4.6484 1.9648-4.129 2.0898-7.7188 4.9102-9.3984 6.3516-3.1133 2.6797-6.4102 6.1914-8.5 9.996-1.2188 2.2188-2.0547 4.5626-2.2032 6.8712-.1015 1.5937.1367 3.1835.7578 4.7343.461 1.0938 1.1485 2.457 1.1485 2.457m22.8633 50.6641c.457.0742 1.1445.2774 1.7578.5078 5.2383 1.9844 7.4023 6.8438 8.6992 12.1875 2.9766 12.3633 4.246 39.7383 4.7578 50.4493.3555 8.039.5586 15.9492.8867 23.914.2813 6.7149.8399 15.6719-.5586 21.9805-.5078 2.2656-2.0351 4.9101-4.2226 6.2578-2.4688 1.6016-8.1407 1.7305-11.2696 1.0703-7.6562-1.5781-10.1484-6.5156-11.2421-14.0937-2.6211-18.1172-1.3477-53.6836.1757-68.668.5118-4.961 2.3672-20.836 4.961-27.4766.8906-2.2617 2.7734-6.7656 6.0547-6.1289M80.8477 201.168c-6.1094-.0899-17.1446-.0196-29.832 1.5742-8.7188 1.0976-17.7774 2.789-26.0977 5.0937-4.6094 1.2461-8.4532 2.7735-11.789 4.9532-3.8087 2.4882-6.9376 5.8086-9.4454 10.2187-2.3398 4.1211-4.543 8.6563-3.3477 13.2383 1.0157 3.8672 6.2696 5.1406 11.0118 5.9414 4.2734.6602 13.9648 1.164 16.5351-1.9648.7227-.754 1.0508-2.8907.0742-4.3008-.9648-1.7031-3.4062-2.9297-5.746-3.3633-1.9766-.3594-5.293-.6914-7.3633-.9844-1.4258-.2031-2.168-.4492-2.5508-.6523-.1133-.0586-.1914-.1133-.25-.164-.1055-.09-.1211-.1915-.1211-.1915s.039-.0976.125-.1836c.1133-.1133.2773-.2656.4414-.3867 1.6445-1.0664 6.9297-2.5625 8.2695-2.9063 6.0469-1.6757 15.3477-2.668 22.9414-3.0664 7.5078-.3906 15.1211-.3906 21.3477-.1601 25.1484.8008 49.5273 4.8515 73.9844 11.832 13.2539 3.7813 26.7812 8.4922 41.1015 14.1133 20.125 7.9766 40.7852 18.8945 59.8516 32.3281 16.8945 11.9063 31.9648 25.3985 43.6523 40.3125 7.0742 9.1133 15.5508 22.8516 19.7813 36.1914 1.4375 4.5352 2.664 9.7305 2.793 15.8672.1289 5.9414-.7774 12.7813-3.3399 19.5156-4.8242 12.6602-15 24.4766-31.7656 33.2383-6.1953 3.2383-13.3008 6.082-21.3594 8.375-8.6953 2.4727-17.6562 4.0625-26.5781 5.0274-10.5274 1.1367-21.039 1.3828-31.7305 1.0976-1.5039-.039-4.6719-.2265-8.2695-.5547-9.164-.832-17.5-2.2617-22.289-3.164l-1.6524-77.4375c12.0078.1797 25.207 1.5937 37.6601 3.7656 6.9532 1.211 18.6875 3.5625 33.168 8.2383 2.9062.9804 6.3672 3.086 6.6484 6.164.1133 1.3047-.3554 2.4454-1.1757 3.5508-2.1797 2.9258-5.754 5.1094-8.7774 6.5742-1.8203.8868-3.4023 1.547-4.1289 2.3633-.789 1.0664-.8477 2.5977.246 3.461 1.4962 1.1835 3.84 2.0195 6.2188 2.5625 12.004 2.7343 20.004-2.6485 24.6563-7.7618 5.0312-5.5351 6.4727-9.828 6.9492-14.3242.8125-7.711-2.707-13.75-4.4844-16.2539-4.418-6.2187-11.207-10.3984-16.6796-13.0156-12.4024-5.9375-26.5586-8.9922-33.7461-10.2695-9.1446-1.629-20.7774-2.9454-34.2188-3.2149-6.2578-.125-12.5469.1758-12.5469.1758s-.2578-10.504-.7148-17.4766c-.7617-11.4726-3.9414-33.9883-14.3711-40.4765-1.9063-1.168-4.25-1.297-5.5703.4843-2.0352 2.6446-4.0195 12.7227-4.4766 15.3164-.4375 2.4727-.8906 5.586-1.3164 8.8907-.6719 5.1992-1.2383 10.9922-1.6172 15.6875-.2148 2.6093-.793 11.1289-.9062 20.1328-.129.125-.3086.3281-.4844.4531 0 0-4.6914.707-10.6875 1.8984-19.7148 3.9258-33.4023 9.379-38.7656 11.7305-9.5899 4.1992-23.3477 11.6172-27.5274 21.3438-.9648 2.4101-1.375 3.918-1.4882 6.375-.254 5.4218 1.7421 10.1992 3.4492 13.2343 4.5234 8.5391 13.582 17.754 21.1953 24.6211 5.496 4.957 13.5 11.125 19.9414 15.5235 5.246 3.582 9.207 6.1133 12.871 8.2695 4.2774 2.5156 8.461 4.754 12.7306 6.7852 2.3125 1.0976 5.1562 2.4882 7.7695 3.7304 0 0 .3906 3.668.9023 7.8711.5157 4.5.9727 9.0625 2.7617 13.2696.6875 1.5312 1.4766 2.8945 2.5586 4.1015 3 3.3594 6.379 4.0625 7.793 4.3164 2.8633.5196 5.5938.2383 8.4727-.3047 1.1914-.2187 2.418-.6406 3.3632-1.1328 1.582-.8203 2.8086-2.0586 3.6563-3.8281 1.2695-2.543 1.7266-6.6016 1.7617-7.1172.1602-2.332.0469-4.9531.0469-4.9531s9.2539 2.1992 15.7148 3.371c10.5977 1.8673 20.7735 2.9766 32.8438 3.1641 14.5664.2227 30.1015-1.6484 46.746-5.664 10.0587-2.4297 19.625-5.6406 28.9727-9.9805 8.672-4.0273 16.4258-8.8242 23.1524-14.375 5.0508-4.1719 10.3164-9.414 15.3906-16.621 1.4453-2.0509 2.7227-4.0352 3.668-5.672.289-.5039 1.0937-1.6836 2.164-3.4882 2.9649-5.0118 6.6446-12.754 8.5664-22.6172.5157-2.9258.8868-5.8008 1.0704-8.6797.707-12.5938-1.8477-25.2813-6.7735-36.8594-1.1055-2.7187-5.0508-12.3516-13.5312-24.5586-7.3946-10.6523-15.9961-20.5508-24.9961-29.5351-5.9805-5.9688-10.5157-10.1446-18.2266-16.6094-10.914-9.0586-21.3242-15.8672-24.5312-17.9766-10.586-6.9375-22.836-13.746-33.586-18.9414-17.3242-8.375-34.2539-14.7969-51.1172-20.0195a417.086 417.086 0 0 0-16.1718-4.6485c-10.1133-2.6914-25.422-6.3867-41.6485-8.4687-9.8164-1.2617-19.2656-1.9063-27.2265-2.0195Zm48.1796 160.6875s-.2539 11.4492-.3046 23.0234c-.0586 11.957.0859 24.0313.2226 32.543.1172 7.1015.2344 11.7187.2344 11.7187s-8.25-2.6992-12.5156-4.8281c-7.832-3.3672-15.2891-7.3008-22.4063-11.746-9.0039-5.625-16.5625-11.3634-23.621-17.6993-1.4415-1.2969-3.9923-3.754-5.2696-5.0469-3.2344-3.207-6.4844-6.457-5.711-10.8164.582-3.332 7.7149-6.496 10.4532-7.2539 6.5195-1.8555 13.1054-3.5469 20.0742-4.9687 7.4102-1.5157 14.582-2.6836 19.7305-3.2461 7.1054-1.086 19.1132-1.6797 19.1132-1.6797Zm0 0" style="stroke:none;fill-rule:nonzero;fill:#136878;fill-opacity:1"/></svg>