<svg xmlns="http://www.w3.org/2000/svg" xmlns:xlink="http://www.w3.org/1999/xlink" width="1024" height="1024" style="cursor:default"><defs><clipPath id="b"><use xlink:href="#a" clip-rule="evenodd"/></clipPath><path id="a" d="M0 0h1024v1024H0z"/></defs><g clip-path="url(#b)"><use xlink:href="#a" fill="none"/><path fill="#24292e" d="m175.302 175.9431 7.522 714.549c-60.173 7.522-105.3024-22.565-105.3024-82.737L70 213.5501C70 25.5111 242.996-19.6183 348.298 55.5975L882.33 363.9821c75.216 52.651 90.259 150.431 52.651 218.125-7.521-52.651-30.086-82.737-75.216-112.823l-601.726-338.471c-45.129-30.0862-82.737-22.5646-82.737 45.13z"/><path fill="#24292e" d="M130.1725 928.1005c45.1295 15.043 90.259 7.521 127.867-15.043l616.769-361.036c37.608 52.651 30.087 105.302-15.043 135.388l-518.989 300.863c-75.216 37.608-172.9961 0-210.604-60.172z"/><path fill="#ffc230" d="m310.6902 717.4963 368.557-210.604-361.0354-203.083z"/></g></svg>