<svg xmlns="http://www.w3.org/2000/svg" width="250" height="245" fill="none"><path fill="#9333EA" d="M126.87 0h1.068l-3.377.3294c21.011.1152 42.047 5.204 60.476 15.3237 23.899 12.9688 43.338 33.9165 54.336 58.7094 7.191 16.1802 10.982 33.8995 10.601 51.6115.099 28.737-10.733 57.236-29.369 79.131-26.912 3.392-54.783 5.451-81.297-1.565-15.731-3.895-29.716-13.99-38.671-27.395-9.0938-16.015-5.9824-38.182 7.804-50.632 9.6-8.662 23.452-12.376 36.122-9.559 11.213 2.28 21.177 9.551 26.928 19.375 5.619-2.94 11.196-5.954 16.824-8.877-3.965-6.637-8.855-12.804-14.971-17.605-10.286-8.102-23.328-12.4991-36.403-12.8616-12.405-.1479-24.842 3.5411-35.046 10.5896-20.7211 14.014-30.9742 41.821-23.8075 65.774 4.576 16.255 16.5755 29.61 30.5775 38.668 11.138 7.123 24.04 10.984 36.973 13.314 17.776 3.129 35.924 1.977 53.798.462-1.795 1.836-4.493 1.729-6.852 2.149-19.074 2.816-38.744 2.906-57.596-1.499-18.081-4.167-35.3021-13.043-48.1453-26.522-18.8761-20.281-23.2948-53.242-8.4656-76.981 7.7458-12.64 19.1078-23.5088 33.2329-28.6718 15.426-5.7224 32.994-5.6651 48.337.3047 2.524-5.8214 5.271-11.5443 7.746-17.3823-25.307-10.2927-55.536-7.625-78.5165 7.1635-12.5786 8.0943-22.9312 19.4159-30.4614 32.2699-8.3914 14.78-11.1057 32.418-8.5403 49.125 3.3846 22.529 15.7559 43.617 33.8955 57.532 8.8213 6.934 19.2487 11.602 29.9817 14.756 13.869 4.1 28.343 5.887 42.783 6.217 2.044.032 4.097.115 6.132.37-2.905 1.499-6.272 1.046-9.425 1.136-17.155.354-34.442-2.297-50.53-8.275-12.2386-4.586-23.7907-11.429-32.8688-20.882-9.525-9.411-17.5354-20.552-22.178-33.15-5.4534-14.912-7.1581-31.307-4.2369-46.944 3.5418-18.6 14.217-35.324 28.1941-47.9554 16.7656-15.2411 39.4646-23.8953 62.1886-23.525.008-6.3896-.008-12.7874.017-19.1772-19.613.0083-39.2332 5.1053-56.1895 14.9533C55.5286 72.7734 37.919 93.614 28.5762 117.642c-6.8602 17.999-9.4256 38.058-4.7666 56.922 5.3293 23.04 20.0346 43.542 39.73 56.651 3.0697 2.24 6.5786 3.796 9.5911 6.127-1.3906-.091-2.8057-.256-4.0552-.914-6.3469-3.022-12.2807-6.835-17.916-11.018-10.1455-7.633-19.7118-16.27-26.9692-26.736-9.078-12.541-16.2362-26.58-20.1918-41.575-3.757-13.866-4.6093-28.375-3.6163-42.66 2.3916-30.6317 16.8899-60.077 39.6056-80.8683C58.4666 16.4766 82.2333 5.1381 107.241 1.6715 113.737.634 120.341.7328 126.87 0Z"/></svg>