<svg xmlns="http://www.w3.org/2000/svg" width="1000" height="223" viewBox="0 0 1001 223"><path d="M312.5469 34.918c-3.6758-13.754-14.4766-24.5586-28.2227-28.2383C259.4414 0 159.6094 0 159.6094 0S59.7813 0 34.8945 6.6797C21.1523 10.3594 10.3515 21.164 6.6758 34.918 0 59.8164 0 111.793 0 111.793s0 51.9804 6.6758 76.8789c3.6758 13.7539 14.4765 24.5586 28.2187 28.2383 24.8867 6.6796 124.7149 6.6796 124.7149 6.6796s99.832 0 124.7148-6.6796c13.7461-3.6797 24.5469-14.4844 28.2227-28.2383 6.6758-24.8985 6.6758-76.879 6.6758-76.879s-.0274-51.9765-6.6758-76.875Zm0 0" style="stroke:none;fill-rule:nonzero;fill:red;fill-opacity:1"/><path d="m127.6602 159.7031 82.9296-47.9023-82.9296-47.9063ZM386.625 145.375 350.7812 15.8594h31.2696l12.5625 58.707c3.207 14.461 5.543 26.793 7.0664 36.9961h.9219c1.0507-7.3086 3.418-19.5625 7.0703-36.7852l13.0039-58.918h31.2734l-36.293 129.5157V207.5h-31.0585v-62.125Zm76.7305 58.0195c-6.3086-4.2578-10.8008-10.8828-13.4805-19.875-2.6563-8.9922-3.996-20.9297-3.996-35.8632V127.332c0-15.0664 1.5272-27.1875 4.5741-36.3086 3.0469-9.125 7.8047-15.8007 14.2696-19.9843 6.4648-4.1797 14.9492-6.2813 25.4609-6.2813 10.3555 0 18.6328 2.129 24.8867 6.3867 6.2266 4.2618 10.8008 10.9375 13.6914 19.9844 2.8906 9.0703 4.336 21.1367 4.336 36.2031v20.3243c0 14.9335-1.422 26.9218-4.2305 35.9687-2.8125 9.0703-7.3867 15.6953-13.6914 19.875-6.3086 4.1797-14.875 6.2852-25.6758 6.2852-11.1406.0234-19.836-2.129-26.1445-6.3907Zm35.371-21.9257c1.7344-4.5743 2.625-12.0157 2.625-22.375v-43.6172c0-10.047-.8671-17.4063-2.625-22.0352-1.7617-4.6523-4.8359-6.9687-9.25-6.9687-4.2578 0-7.2812 2.3164-9.0156 6.9687-1.7578 4.6523-2.625 11.9883-2.625 22.0352v43.6171c0 10.3594.8399 17.8243 2.5196 22.375 1.6836 4.5743 4.703 6.8594 9.121 6.8594 4.4141 0 7.4883-2.2851 9.25-6.8594Zm136.09 26.0585H610.168l-2.7305-17.1406h-.6836c-6.7031 12.9336-16.7422 19.4024-30.1406 19.4024-9.2774 0-16.1367-3.0508-20.5508-9.1211-4.414-6.1016-6.621-15.6172-6.621-28.5547V67.496h31.5077v102.7773c0 6.2578.6836 10.6993 2.0469 13.3555 1.3672 2.6563 3.6562 3.9961 6.8594 3.9961 2.7343 0 5.3632-.8398 7.8828-2.5234 2.5234-1.6836 4.3633-3.8125 5.5976-6.3907V67.4687h31.4805Zm0 0" style="stroke:none;fill-rule:nonzero;fill:#fff;fill-opacity:1"/><path d="M720.4063 41.2266h-31.2696v166.2968h-30.8242V41.2266h-31.2734V15.8789h93.3672Zm0 0" style="stroke:none;fill-rule:nonzero;fill:#fff;fill-opacity:1"/><path d="M796.3984 207.5273H771.75l-2.7305-17.1406h-.6836c-6.6992 12.9336-16.7382 19.4024-30.1406 19.4024-9.2773 0-16.1367-3.0508-20.5508-9.1211-4.414-6.1016-6.621-15.6172-6.621-28.5547V67.496h31.5078v102.7773c0 6.2578.6835 10.6993 2.0507 13.3555 1.3633 2.6563 3.6524 3.9961 6.8555 3.9961 2.7344 0 5.3633-.8398 7.8828-2.5234 2.5234-1.6836 4.3633-3.8125 5.5977-6.3907V67.4687h31.4804ZM900.672 89.8672c-1.918-8.832-4.9922-15.2227-9.25-19.1914-4.2578-3.9688-10.1172-5.9414-17.5782-5.9414-5.7812 0-11.1953 1.6289-16.2148 4.914-5.0195 3.2891-8.9102 7.5743-11.6406 12.9102h-.2383V8.7852h-30.3516V207.5h26.0157l3.207-13.25h.6836c2.4453 4.7305 6.0976 8.4375 10.957 11.1992 4.8633 2.7344 10.2774 4.1016 16.2149 4.1016 10.6406 0 18.5-4.918 23.5195-14.7227 5.0156-9.836 7.539-25.164 7.539-46.039V126.625c0-15.6445-.9726-27.9219-2.8632-36.7578ZM871.7929 147c0 10.2031-.4218 18.1953-1.2617 23.9805-.8398 5.7851-2.2343 9.9101-4.2304 12.328-1.9727 2.4454-4.6524 3.6563-7.9883 3.6563-2.6016 0-4.9922-.6054-7.2031-1.8398-2.2032-1.211-3.9922-3.0508-5.3594-5.4688v-79.4804c1.0508-3.8125 2.8906-6.914 5.4922-9.3594 2.5781-2.4453 5.414-3.6562 8.4375-3.6562 3.2031 0 5.6758 1.2617 7.4101 3.7617 1.7579 2.5234 2.9688 6.7304 3.6524 12.6719.6836 5.9414 1.0234 14.3789 1.0234 25.3437V147Zm76.4415 8.0742c0 8.9883.2617 15.7227.789 20.2188.5235 4.4922 1.629 7.7539 3.3086 9.832 1.6836 2.0508 4.2578 3.0742 7.754 3.0742 4.703 0 7.9609-1.8398 9.6953-5.4922 1.7617-3.6562 2.707-9.7539 2.8632-18.2734l27.172 1.6016c.16 1.2109.2382 2.8945.2382 5.0234 0 12.9336-3.5508 22.6094-10.6172 29-7.0703 6.3906-17.082 9.5976-30.0078 9.5976-15.5313 0-26.4102-4.8671-32.6406-14.621-6.254-9.754-9.3516-24.8165-9.3516-45.2227v-24.4492c0-21.0078 3.2305-36.3633 9.6953-46.039 6.4649-9.6759 17.5274-14.5118 33.2149-14.5118 10.8007 0 19.1054 1.9727 24.8867 5.9414s9.8515 10.1211 12.2187 18.5078c2.3633 8.3906 3.5469 19.957 3.5469 34.7344v23.9766h-52.7656Zm3.9922-65.996c-1.6016 1.9726-2.6524 5.207-3.2032 9.703-.5273 4.4961-.789 11.3047-.789 20.457v10.043h23.0468v-10.043c0-8.9921-.3164-15.8046-.9218-20.457-.6055-4.6523-1.707-7.914-3.3125-9.832-1.6016-1.8945-4.0703-2.8672-7.4102-2.8672-3.3633.0274-5.832 1.0235-7.4101 2.9961Zm0 0" style="stroke:none;fill-rule:nonzero;fill:#fff;fill-opacity:1"/></svg>