<svg xmlns="http://www.w3.org/2000/svg" width="1000" height="504" viewBox="0 0 999 504"><path d="M999 43.293C996.289 21.1172 979.836 3.4414 958.8828 0H40.5156C17.5664 3.7695 0 24.6094 0 49.7227v403.6328c0 27.8086 21.4922 50.3476 48.0234 50.3476H951.379c24.4258 0 44.5977-19.1328 47.6211-43.8984Zm0 0" style="stroke:none;fill-rule:nonzero;fill:#f6c700;fill-opacity:1"/><path d="M120.4883 101.2188h79.2773v305.2656h-79.2773ZM349.5625 241.832c-6.8086-46.5234-10.5977-72.3828-11.3438-77.5468-3.3203-24.9024-6.4804-46.5743-9.5039-65.0665H225.9297v305.2657h69.4453l.2422-201.5625 29.2226 201.5625h49.4649l27.711-206.0469.2616 206.0469h69.2149V99.2188H367.9258Zm252.8086-79.1093c.8672 3.8945 1.3203 12.7226 1.3203 26.5195v118.3555c0 20.3164-1.3203 32.7578-3.9453 37.3476-2.6406 4.586-9.6602 6.8633-21.039 6.8633V151.4258c8.6366 0 14.5234.9219 17.6523 2.7304 3.1289 1.8243 5.1445 4.672 6.0117 8.5665Zm35.8086 238.6523c9.4336-2.0664 17.3555-5.7188 23.7851-10.914 6.4102-5.215 10.9102-12.4258 13.4805-21.6563 2.5899-9.211 4.1172-27.5117 4.1172-54.8828V206.7266c0-28.8828-1.129-48.2461-2.8828-58.082-1.7734-9.8516-6.168-18.8048-13.2031-26.8321-7.0547-8.0313-17.3399-13.8008-30.8594-17.3125-13.5313-3.5078-35.5977-5.2813-73.9766-5.2813H499.5v305.2657h96.043c22.1328-.6953 36.3476-1.7188 42.6367-3.1094Zm169.289-45.621c-1.457 3.875-7.8515 5.8397-12.6835 5.8397-4.7227 0-7.8672-1.875-9.4688-5.6484-1.5977-3.7539-2.3789-12.3203-2.3789-25.7383v-80.6757c0-13.9024.6953-22.5743 2.1016-26.0352 1.3906-3.4219 4.4492-5.1602 9.1757-5.1602 4.8282 0 11.3086 1.9649 12.9766 5.9102 1.6523 3.9453 2.4844 12.375 2.4844 25.2851v78.2266c-.504 16.0742-1.2344 25.4063-2.207 27.9961ZM706.5625 401.828h71.371c2.9727-11.664 4.6056-18.1445 4.9337-19.4492 6.4648 7.8203 13.5703 13.6953 21.371 17.5899 7.7657 3.9101 19.3907 5.8554 28.3907 5.8554 12.5234 0 23.332-3.2851 32.4531-9.871 9.1055-6.5704 14.9063-14.3555 17.375-23.3048 2.4649-8.9687 3.6992-22.5937 3.6992-40.914v-85.6446c0-18.4218-.418-30.4492-1.2343-36.0937-.8164-5.6484-3.2461-11.4024-7.2969-17.293-4.0469-5.8945-9.9375-10.4648-17.6523-13.7304-7.711-3.2696-16.8165-4.9024-27.3086-4.9024-9.125 0-20.797 1.8242-28.582 5.4219-7.7657 3.5976-14.8204 9.0547-21.1446 16.371V96.5587h-76.375Zm0 0" style="stroke:none;fill-rule:nonzero;fill:#000;fill-opacity:1"/></svg>