<svg xmlns="http://www.w3.org/2000/svg" width="1000" height="271" viewBox="0 0 1001 271"><path d="M137.6406 253.2969c-15.0586 2.6445-30.3828 3.4375-46.2304 5.5508L43.0625 117.1289v147.8008C28.0039 266.5157 14.2656 268.6328 0 270.746V0h40.1563l54.9492 153.621V0h42.5351Zm83.2188-154.1446c16.3789 0 41.4765-.7968 56.5351-.7968v42.3047c-18.7578 0-40.6836 0-56.5351.793v62.9296c24.836-1.586 49.668-3.7031 74.7656-4.496v40.7148l-117.0352 9.2578V0H295.625v42.3047h-74.7656Zm231.9531-56.8476h-43.8516v194.6016c-14.2695 0-28.5351 0-42.2695.5273V42.3046H322.836V0h129.9805ZM521.5 96.2422h57.8594v42.3047H521.5v95.9804h-41.4766V0h118.0938v42.3047H521.5Zm145.3047 101.2656c24.039.5274 48.3437 2.3828 71.8594 3.7031v41.7735c-37.7813-2.379-75.5586-4.7578-114.129-5.5508V0h42.2696Zm107.5234 48.3867c13.4727.793 27.7383 1.586 41.4766 3.172V0H774.328ZM1001 0l-53.629 128.7656L1001 270.7461c-15.8516-2.1133-31.7031-5.0234-47.5547-7.668l-30.3789-78.2617-30.9102 71.918c-15.3242-2.6446-30.1171-3.4375-45.4375-5.5547l54.422-124.004L852 0h45.4375l27.7383 71.125L954.7656 0Zm0 0" style="stroke:none;fill-rule:nonzero;fill:#d81f26;fill-opacity:1"/></svg>