<svg xmlns="http://www.w3.org/2000/svg" xmlns:xlink="http://www.w3.org/1999/xlink" width="161" height="35.52"><defs><linearGradient id="a" x2="273.42" y1="17.76" y2="17.76" gradientUnits="userSpaceOnUse"><stop offset="0" stop-color="#90cea1"/><stop offset=".56" stop-color="#3cbec9"/><stop offset="1" stop-color="#00b3e5"/></linearGradient><linearGradient xlink:href="#a" id="b" x2="273.42" y1="17.76" y2="17.76" gradientUnits="userSpaceOnUse"/><linearGradient xlink:href="#a" id="c" x2="273.42" y1="17.76" y2="17.76" gradientUnits="userSpaceOnUse"/></defs><path d="M0 0v6.9004h10.0996v28.5195h7.8008V6.92H28V0Zm38.1992 0v35.42H46V8.25h.0996l8.9512 27.1504h6l9.25-27.1504h.0996v27.1504h7.7988V0h-11.75L58.25 23.0996h-.0996L50 0Zm157.3086 0c.3423.0416.684.0863 1.0254.1348A68.6638 68.6638 0 0 1 198.416 0ZM89.1406.1191v35.4512h12.75a24.53 24.53 0 0 0 7.5488-1.1504 19.24 19.24 0 0 0 6.3497-3.3691 16.3 16.3 0 0 0 4.3808-5.5 16.91 16.91 0 0 0 1.6192-7.5801 18.5 18.5 0 0 0-1.67-8.25 15.09 15.09 0 0 0-4.5293-5.5215 18.52 18.52 0 0 0-6.6699-3.08 33.56 33.56 0 0 0-8.08-1zm43.9492 0V35.5h14.5a22.5 22.5 0 0 0 4.7305-.5 13.38 13.38 0 0 0 4.2695-1.6504 9.32 9.32 0 0 0 3.0997-3 8.52 8.52 0 0 0 1.2011-4.6797 9.16 9.16 0 0 0-.5508-3.1992 7.79 7.79 0 0 0-1.5703-2.621A8.51 8.51 0 0 0 156.3203 18a10.28 10.28 0 0 0-3.1797-1v-.0605a9.13 9.13 0 0 0 4.4297-2.8204 7.48 7.48 0 0 0 1.67-5 8.34 8.34 0 0 0-1.1505-4.6484 7.94 7.94 0 0 0-3-2.7207A12.66 12.66 0 0 0 150.92.4492a32.87 32.87 0 0 0-4.6308-.33zm55.918.1114a17.67 17.67 0 0 0-.164.0273c.0543-.001.1077-.001.162-.002.0003-.0082.0004-.0172.002-.0253zm78.4004 4.3672c-.0934-.0021-.1482.0166-.1973.0507.0537 0 .107-.003.1602-.0097h.002a.0995.0995 0 0 0 .037-.0332h.002v-.0079h-.002zm-126.5586 2.123h5.3008A9.9 9.9 0 0 1 148 6.9004a6.07 6.07 0 0 1 1.7695.5703A3.42 3.42 0 0 1 151 8.5997a3.3 3.3 0 0 1 .4395 1.8202 3.63 3.63 0 0 1-.42 1.8008 3.43 3.43 0 0 1-1.1289 1.1992 4.78 4.78 0 0 1-1.5703.6504 7.65 7.65 0 0 1-1.7812.1992h-5.6485zm-43.9101.6484h4.5996A17.06 17.06 0 0 1 106.2207 8a11.61 11.61 0 0 1 3.83 1.8691 9.17 9.17 0 0 1 2.629 3.1817 9.87 9.87 0 0 1 1 4.5195 11.9 11.9 0 0 1-1 5.08A8.73 8.73 0 0 1 110 26a10.58 10.58 0 0 1-4.0606 1.7695 21.66 21.66 0 0 1-5 .5508h-4Zm91.7851 11.25a7.5361 7.5361 0 0 0-.1289.0547c.0425.0162.0843.0333.127.0489.0006-.0343.001-.0693.002-.1036zm-47.7851 2.2715h5.9003a15.12 15.12 0 0 1 2.0508.1485 8.23 8.23 0 0 1 2 .5507 4 4 0 0 1 1.5801 1.1797 3.16 3.16 0 0 1 .6191 2 3.8 3.8 0 0 1-.4707 1.9512 3.93 3.93 0 0 1-1.2285 1.2988 4.67 4.67 0 0 1-1.6699.7012 8.27 8.27 0 0 1-1.83.1992h-7z" data-name="Layer 2" style="fill:url(#b)"/><path d="M0 0v6.9004h10.0996v28.5195h7.8008V6.92H28V0Zm38.1992 0v35.42H46V8.25h.0996l8.9512 27.1504h6l9.25-27.1504h.0996v27.1504h7.7988V0h-11.75L58.25 23.0996h-.0996L50 0Zm157.3086 0c.3423.0416.684.0863 1.0254.1348A68.6638 68.6638 0 0 1 198.416 0ZM89.1406.1191v35.4512h12.75a24.53 24.53 0 0 0 7.5488-1.1504 19.24 19.24 0 0 0 6.3497-3.3691 16.3 16.3 0 0 0 4.3808-5.5 16.91 16.91 0 0 0 1.6192-7.5801 18.5 18.5 0 0 0-1.67-8.25 15.09 15.09 0 0 0-4.5293-5.5215 18.52 18.52 0 0 0-6.6699-3.08 33.56 33.56 0 0 0-8.08-1zm43.9492 0V35.5h14.5a22.5 22.5 0 0 0 4.7305-.5 13.38 13.38 0 0 0 4.2695-1.6504 9.32 9.32 0 0 0 3.0997-3 8.52 8.52 0 0 0 1.2011-4.6797 9.16 9.16 0 0 0-.5508-3.1992 7.79 7.79 0 0 0-1.5703-2.621A8.51 8.51 0 0 0 156.3203 18a10.28 10.28 0 0 0-3.1797-1v-.0605a9.13 9.13 0 0 0 4.4297-2.8204 7.48 7.48 0 0 0 1.67-5 8.34 8.34 0 0 0-1.1505-4.6484 7.94 7.94 0 0 0-3-2.7207A12.66 12.66 0 0 0 150.92.4492a32.87 32.87 0 0 0-4.6308-.33zm55.918.1114a17.67 17.67 0 0 0-.164.0273c.0543-.001.1077-.001.162-.002.0003-.0082.0004-.0172.002-.0253zm78.4004 4.3672c-.0934-.0021-.1482.0166-.1973.0507.0537 0 .107-.003.1602-.0097h.002a.0995.0995 0 0 0 .037-.0332h.002v-.0079h-.002zm-126.5586 2.123h5.3008A9.9 9.9 0 0 1 148 6.9004a6.07 6.07 0 0 1 1.7695.5703A3.42 3.42 0 0 1 151 8.5997a3.3 3.3 0 0 1 .4395 1.8202 3.63 3.63 0 0 1-.42 1.8008 3.43 3.43 0 0 1-1.1289 1.1992 4.78 4.78 0 0 1-1.5703.6504 7.65 7.65 0 0 1-1.7812.1992h-5.6485zm-43.9101.6484h4.5996A17.06 17.06 0 0 1 106.2207 8a11.61 11.61 0 0 1 3.83 1.8691 9.17 9.17 0 0 1 2.629 3.1817 9.87 9.87 0 0 1 1 4.5195 11.9 11.9 0 0 1-1 5.08A8.73 8.73 0 0 1 110 26a10.58 10.58 0 0 1-4.0606 1.7695 21.66 21.66 0 0 1-5 .5508h-4Zm91.7851 11.25a7.5361 7.5361 0 0 0-.1289.0547c.0425.0162.0843.0333.127.0489.0006-.0343.001-.0693.002-.1036zm-47.7851 2.2715h5.9003a15.12 15.12 0 0 1 2.0508.1485 8.23 8.23 0 0 1 2 .5507 4 4 0 0 1 1.5801 1.1797 3.16 3.16 0 0 1 .6191 2 3.8 3.8 0 0 1-.4707 1.9512 3.93 3.93 0 0 1-1.2285 1.2988 4.67 4.67 0 0 1-1.6699.7012 8.27 8.27 0 0 1-1.83.1992h-7z" data-name="Layer 2" style="fill:url(#c)"/></svg>