<svg xmlns="http://www.w3.org/2000/svg" xmlns:xlink="http://www.w3.org/1999/xlink" width="763pt" height="694pt" viewBox="0 0 763 694"><defs><symbol id="a" overflow="visible"><path d="M6.3125-12.921875v1.28125H4.84375c-.542969 0-.925781.113281-1.140625.328125-.210937.21875-.3125.617188-.3125 1.1875v.828125H5.90625v1.1875H3.390625V0H1.84375v-8.109375H.390625v-1.1875H1.84375V-9.9375c0-1.039062.238281-1.796875.71875-2.265625.488281-.476563 1.253906-.71875 2.296875-.71875Z" style="stroke:none"/></symbol><symbol id="b" overflow="visible"><path d="M6.984375-7.875c-.167969-.089844-.355469-.160156-.5625-.203125-.199219-.050781-.417969-.078125-.65625-.078125-.867187 0-1.535156.285156-2 .84375-.460937.5625-.6875 1.371094-.6875 2.421875V0h-1.53125v-9.296875h1.53125v1.4375c.320313-.558594.738281-.976563 1.25-1.25.519531-.269531 1.144531-.40625 1.875-.40625.101563 0 .21875.007813.34375.015625.132813.011719.28125.035156.4375.0625Z" style="stroke:none"/></symbol><symbol id="c" overflow="visible"><path d="M1.8125-2.109375h1.75V0h-1.75Z" style="stroke:none"/></symbol><symbol id="d" overflow="visible"><path d="M.71875-9.296875h1.515625l1.921875 7.25 1.890625-7.25h1.8125l1.90625 7.25 1.890625-7.25h1.53125L10.765625 0h-1.8125l-2-7.625-2 7.625h-1.8125Z" style="stroke:none"/></symbol><symbol id="e" overflow="visible"><path d="M1.609375-9.296875H3.125V0H1.609375Zm0-3.625H3.125v1.9375H1.609375Z" style="stroke:none"/></symbol><symbol id="f" overflow="visible"><path d="M1.546875-12.921875h1.53125v7.640625l4.5625-4.015625H9.59375l-4.9375 4.34375L9.796875 0h-2l-4.71875-4.546875V0h-1.53125Z" style="stroke:none"/></symbol><symbol id="g" overflow="visible"><path d="M3.078125-1.390625V3.53125h-1.53125V-9.296875h1.53125v1.40625c.320313-.550781.726563-.957031 1.21875-1.21875.488281-.269531 1.070313-.40625 1.75-.40625 1.132813 0 2.050781.449219 2.75 1.34375.707031.898437 1.0625 2.074219 1.0625 3.53125 0 1.460937-.355469 2.636719-1.0625 3.53125-.699219.898437-1.617187 1.34375-2.75 1.34375-.679687 0-1.261719-.132813-1.75-.390625-.492187-.269531-.898437-.679688-1.21875-1.234375Zm5.203125-3.25c0-1.121094-.238281-2.003906-.703125-2.640625C7.117188-7.925781 6.480469-8.25 5.671875-8.25c-.804687 0-1.441406.324219-1.90625.96875-.460937.636719-.6875 1.519531-.6875 2.640625 0 1.125.226563 2.011719.6875 2.65625.464844.636719 1.101563.953125 1.90625.953125.808594 0 1.445313-.316406 1.90625-.953125.464844-.644531.703125-1.53125.703125-2.65625Z" style="stroke:none"/></symbol><symbol id="h" overflow="visible"><path d="M9.546875-5.03125v.75H2.53125c.058594 1.054688.375 1.855469.9375 2.40625.570312.554688 1.367188.828125 2.390625.828125.582031 0 1.148437-.070313 1.703125-.21875.550781-.144531 1.097656-.363281 1.640625-.65625V-.46875c-.554687.230469-1.117187.4023438-1.6875.515625-.574219.121094-1.160156.1875-1.75.1875-1.492187 0-2.667969-.425781-3.53125-1.28125C1.367188-1.910156.9375-3.082031.9375-4.5625c0-1.519531.410156-2.722656 1.234375-3.609375.820313-.894531 1.929687-1.34375 3.328125-1.34375 1.246094 0 2.234375.402344 2.953125 1.203125.726563.804688 1.09375 1.898438 1.09375 3.28125ZM8.03125-5.484375c-.011719-.832031-.246094-1.492187-.703125-1.984375-.460937-.496094-1.066406-.75-1.8125-.75-.855469 0-1.539063.242188-2.046875.71875-.511719.480469-.808594 1.160156-.890625 2.03125Z" style="stroke:none"/></symbol><symbol id="i" overflow="visible"><path d="M7.71875-7.890625v-5.03125H9.25V0H7.71875v-1.390625C7.394531-.835938 6.988281-.425781 6.5-.15625c-.492188.257812-1.082031.390625-1.765625.390625C3.617188.234375 2.707031-.210938 2-1.109375 1.289062-2.003906.9375-3.179688.9375-4.640625c0-1.457031.351562-2.632813 1.0625-3.53125.707031-.894531 1.617188-1.34375 2.734375-1.34375.683594 0 1.273437.136719 1.765625.40625.488281.261719.894531.667969 1.21875 1.21875Zm-5.203125 3.25c0 1.125.226563 2.011719.6875 2.65625.464844.636719 1.101563.953125 1.90625.953125.808594 0 1.445313-.316406 1.90625-.953125.464844-.644531.703125-1.53125.703125-2.65625 0-1.121094-.238281-2.003906-.703125-2.640625C6.554688-7.925781 5.917969-8.25 5.109375-8.25c-.804687 0-1.441406.324219-1.90625.96875-.460937.636719-.6875 1.519531-.6875 2.640625Z" style="stroke:none"/></symbol><symbol id="j" overflow="visible"><path d="M5.828125-4.671875c-1.242187 0-2.101563.144531-2.578125.421875-.46875.28125-.703125.761719-.703125 1.4375 0 .542969.175781.976562.53125 1.296875.363281.324219.851563.484375 1.46875.484375.839844 0 1.519531-.300781 2.03125-.90625.507813-.601562.765625-1.398438.765625-2.390625v-.34375Zm3.046875-.625V0H7.34375v-1.40625c-.34375.5625-.777344.980469-1.296875 1.25-.523437.257812-1.160156.390625-1.90625.390625-.960937 0-1.722656-.265625-2.28125-.796875-.5625-.527344-.84375-1.242188-.84375-2.140625 0-1.050781.347656-1.84375 1.046875-2.375C2.769531-5.605469 3.816406-5.875 5.203125-5.875H7.34375v-.140625c0-.707031-.238281-1.25-.703125-1.625-.460937-.382813-1.105469-.578125-1.9375-.578125-.53125 0-1.050781.066406-1.546875.1875-.5.125-.988281.316406-1.453125.5625V-8.875c.558594-.214844 1.101563-.378906 1.625-.484375.527344-.101563 1.039063-.15625 1.53125-.15625 1.339844 0 2.347656.351563 3.015625 1.046875.664062.699219 1 1.757812 1 3.171875Z" style="stroke:none"/></symbol><symbol id="k" overflow="visible"><path d="M5.203125-8.21875c-.824219 0-1.476563.320312-1.953125.953125-.46875.636719-.703125 1.511719-.703125 2.625C2.546875-3.523438 2.78125-2.644531 3.25-2c.476562.636719 1.128906.953125 1.953125.953125.808594 0 1.457031-.320313 1.9375-.96875.476563-.644531.71875-1.519531.71875-2.625 0-1.101563-.242187-1.972656-.71875-2.609375-.480469-.644531-1.128906-.96875-1.9375-.96875Zm0-1.296875c1.332031 0 2.375.433594 3.125 1.296875.757813.855469 1.140625 2.050781 1.140625 3.578125 0 1.523437-.382812 2.714844-1.140625 3.578125-.75.867188-1.792969 1.296875-3.125 1.296875-1.335937 0-2.382813-.429687-3.140625-1.296875-.75-.863281-1.125-2.054688-1.125-3.578125 0-1.527344.375-2.722656 1.125-3.578125.757812-.863281 1.804688-1.296875 3.140625-1.296875Z" style="stroke:none"/></symbol><symbol id="l" overflow="visible"><path d="M7.71875-4.75c0-1.113281-.230469-1.972656-.6875-2.578125C6.570312-7.941406 5.929688-8.25 5.109375-8.25c-.8125 0-1.449219.308594-1.90625.921875-.460937.605469-.6875 1.464844-.6875 2.578125 0 1.09375.226563 1.949219.6875 2.5625.457031.605469 1.09375.90625 1.90625.90625.820313 0 1.460937-.300781 1.921875-.90625.457031-.613281.6875-1.46875.6875-2.5625ZM9.25-1.15625c0 1.582031-.355469 2.757812-1.0625 3.53125-.699219.769531-1.773438 1.15625-3.21875 1.15625-.542969 0-1.054688-.042969-1.53125-.125-.46875-.074219-.929688-.195312-1.375-.359375V1.5625c.445312.238281.890625.414062 1.328125.53125.433594.121094.878906.1875 1.328125.1875.996094 0 1.75-.269531 2.25-.796875.496094-.523437.75-1.308594.75-2.359375v-.765625C7.40625-1.085938 6.996094-.675781 6.5-.40625 6.007812-.132812 5.417969 0 4.734375 0c-1.136719 0-2.054687-.429688-2.75-1.296875C1.285156-2.167969.9375-3.320312.9375-4.75c0-1.445312.347656-2.601562 1.046875-3.46875.695313-.863281 1.613281-1.296875 2.75-1.296875.683594 0 1.273437.136719 1.765625.40625.496094.273437.90625.679687 1.21875 1.21875v-1.40625H9.25Z" style="stroke:none"/></symbol><symbol id="n" overflow="visible"><path d="m5.8125-10.734375-2.28125 6.15625h4.5625Zm-.953125-1.65625h1.90625L11.484375 0H9.75L8.609375-3.171875H3.03125L1.90625 0H.140625Z" style="stroke:none"/></symbol><symbol id="o" overflow="visible"><path d="M3.25-2.109375h1.6875V0H3.25Zm1.625-1.21875H3.296875v-1.28125c0-.558594.078125-1.019531.234375-1.375.152344-.363281.476562-.78125.96875-1.25l.75-.75c.320312-.289063.550781-.566406.6875-.828125.144531-.257812.21875-.523438.21875-.796875 0-.488281-.183594-.882813-.546875-1.1875-.367187-.300781-.847656-.453125-1.4375-.453125-.4375 0-.910156.101562-1.40625.296875-.492187.1875-1.007813.464844-1.546875.828125v-1.546875c.519531-.320313 1.046875-.5625 1.578125-.71875.539063-.152344 1.09375-.234375 1.65625-.234375 1.019531 0 1.835937.273438 2.453125.8125.621094.542969.9375 1.253906.9375 2.125 0 .417969-.105469.820312-.3125 1.203125-.199219.375-.550781.804687-1.046875 1.28125l-.71875.71875c-.261719.261719-.449219.464844-.5625.609375-.105469.148438-.179687.289062-.21875.421875-.03125.117187-.058594.257813-.078125.421875-.023438.167969-.03125.398438-.03125.6875Z" style="stroke:none"/></symbol><symbol id="p" overflow="visible"><path d="M9.328125-5.609375V0h-1.53125v-5.5625c0-.871094-.175781-1.53125-.515625-1.96875-.335938-.433594-.847656-.65625-1.53125-.65625-.835938 0-1.492188.269531-1.96875.796875-.46875.523437-.703125 1.238281-.703125 2.140625V0h-1.53125v-12.921875h1.53125v5.0625c.363281-.550781.789063-.960937 1.28125-1.234375.496094-.277344 1.070313-.421875 1.71875-.421875 1.070313 0 1.878906.335937 2.421875 1 .550781.65625.828125 1.628906.828125 2.90625Z" style="stroke:none"/></symbol><symbol id="q" overflow="visible"><path d="M3.109375-11.9375v2.640625h3.15625v1.1875h-3.15625V-3.0625c0 .761719.101563 1.253906.3125 1.46875.207031.210938.628906.3125 1.265625.3125h1.578125V0H4.6875C3.507812 0 2.695312-.21875 2.25-.65625c-.449219-.433594-.671875-1.238281-.671875-2.40625v-5.046875h-1.125v-1.1875h1.125V-11.9375Z" style="stroke:none"/></symbol><symbol id="r" overflow="visible"><path d="M2-2.109375h1.75V0H2Zm0-6.6875h1.75V-6.6875H2Z" style="stroke:none"/></symbol><symbol id="s" overflow="visible"><path d="M4.3125-12.390625h1.421875L1.40625 1.578125H0Z" style="stroke:none"/></symbol><symbol id="t" overflow="visible"><path d="M9.09375-11.984375v1.640625c-.636719-.308594-1.238281-.539062-1.796875-.6875-.5625-.144531-1.113281-.21875-1.640625-.21875-.90625 0-1.613281.179688-2.109375.53125-.492187.355469-.734375.855469-.734375 1.5 0 .554688.160156.972656.484375 1.25.332031.28125.957031.507812 1.875.671875L6.1875-7.09375c1.246094.242188 2.171875.664062 2.765625 1.265625.589844.59375.890625 1.398437.890625 2.40625 0 1.199219-.410156 2.113281-1.21875 2.734375-.804688.6171875-1.980469.921875-3.53125.921875-.585938 0-1.210938-.070313-1.875-.203125-.65625-.1210938-1.339844-.316406-2.046875-.578125V-2.28125c.675781.386719 1.34375.679688 2 .875.652344.1875 1.296875.28125 1.921875.28125.957031 0 1.695312-.1875 2.21875-.5625.519531-.371094.78125-.910156.78125-1.609375 0-.601563-.191406-1.078125-.5625-1.421875-.375-.339844-.992188-.601562-1.84375-.78125l-1.015625-.1875c-1.25-.246094-2.160156-.640625-2.71875-1.171875C1.398438-7.386719 1.125-8.128906 1.125-9.078125c0-1.089844.382812-1.957031 1.15625-2.59375.769531-.632813 1.832031-.953125 3.1875-.953125.582031 0 1.175781.058594 1.78125.171875.601562.105469 1.21875.261719 1.84375.46875Z" style="stroke:none"/></symbol><symbol id="u" overflow="visible"><path d="M.5-9.296875h1.625L5.03125-1.5 7.9375-9.296875h1.609375L6.0625 0H4Z" style="stroke:none"/></symbol><symbol id="v" overflow="visible"><path d="M1.4375-3.671875v-5.625h1.53125v5.5625c0 .886719.171875 1.550781.515625 1.984375.339844.4375.859375.65625 1.546875.65625.820312 0 1.472656-.257812 1.953125-.78125.476563-.527344.71875-1.25.71875-2.15625v-5.265625h1.53125V0h-1.53125v-1.421875c-.375.5625-.808594.980469-1.296875 1.25-.492188.2695312-1.058594.40625-1.703125.40625-1.0625 0-1.878906-.328125-2.4375-.984375-.554687-.664062-.828125-1.640625-.828125-2.921875Zm3.84375-5.84375Z" style="stroke:none"/></symbol><symbol id="w" overflow="visible"><path d="M3.34375-11.015625V-1.375H5.375c1.707031 0 2.957031-.382812 3.75-1.15625.789062-.777344 1.1875-2.003906 1.1875-3.671875 0-1.664063-.398438-2.882813-1.1875-3.65625-.792969-.769531-2.042969-1.15625-3.75-1.15625Zm-1.671875-1.375h3.4375c2.402344 0 4.171875.503906 5.296875 1.5 1.121094 1 1.6875 2.566406 1.6875 4.6875 0 2.136719-.570312 3.707031-1.703125 4.703125-1.125 1-2.886719 1.5-5.28125 1.5h-3.4375Z" style="stroke:none"/></symbol><symbol id="x" overflow="visible"><path d="M1.671875-12.390625h2.25l5.5 10.359375v-10.359375h1.625V0h-2.25l-5.5-10.375V0h-1.625Z" style="stroke:none"/></symbol><symbol id="y" overflow="visible"><path d="M9.546875-5.03125v.75H2.53125c.058594 1.054688.375 1.855469.9375 2.40625.570312.554688 1.367188.828125 2.390625.828125.582031 0 1.148437-.070313 1.703125-.21875.550781-.144531 1.097656-.363281 1.640625-.65625V-.46875c-.554687.230469-1.117187.4023438-1.6875.515625-.574219.121094-1.160156.1875-1.75.1875-1.492187 0-2.667969-.425781-3.53125-1.28125C1.367188-1.910156.9375-3.082031.9375-4.5625c0-1.519531.410156-2.722656 1.234375-3.609375.820313-.894531 1.929687-1.34375 3.328125-1.34375 1.246094 0 2.234375.402344 2.953125 1.203125.726563.804688 1.09375 1.898438 1.09375 3.28125ZM8.03125-5.484375c-.011719-.832031-.246094-1.492187-.703125-1.984375-.460937-.496094-1.066406-.75-1.8125-.75-.855469 0-1.539063.242188-2.046875.71875-.511719.480469-.808594 1.160156-.890625 2.03125Zm-1.625-8.109375H8.0625l-2.71875 3.125H4.078125Z" style="stroke:none"/></symbol><symbol id="z" overflow="visible"><path d="M8.296875-8.9375v1.421875c-.4375-.238281-.878906-.414063-1.3125-.53125-.429687-.113281-.867187-.171875-1.3125-.171875-.992187 0-1.761719.316406-2.3125.9375-.542969.625-.8125 1.507812-.8125 2.640625 0 1.136719.269531 2.023437.8125 2.65625.550781.625 1.320313.9375 2.3125.9375.445313 0 .882813-.054687 1.3125-.171875.433594-.121094.875-.304688 1.3125-.546875v1.40625c-.429687.199219-.871094.3476562-1.328125.4375-.460938.101563-.945312.15625-1.453125.15625-1.40625 0-2.523437-.4375-3.34375-1.3125C1.347656-1.960938.9375-3.148438.9375-4.640625c0-1.519531.414062-2.710937 1.25-3.578125.832031-.863281 1.972656-1.296875 3.421875-1.296875.464844 0 .925781.050781 1.375.140625.445313.09375.882813.242188 1.3125.4375Z" style="stroke:none"/></symbol><symbol id="A" overflow="visible"><path d="M7.53125-9.015625v1.4375c-.4375-.214844-.894531-.382813-1.359375-.5C5.710938-8.191406 5.230469-8.25 4.734375-8.25c-.75 0-1.320313.121094-1.703125.359375-.375.230469-.5625.582031-.5625 1.046875 0 .355469.132812.632812.40625.828125.269531.199219.8125.394531 1.625.578125l.53125.109375c1.082031.242187 1.851562.574219 2.3125 1 .457031.417969.6875 1.007813.6875 1.765625 0 .867188-.347656 1.550781-1.03125 2.046875-.679688.5-1.617188.75-2.8125.75-.5 0-1.023438-.050781-1.5625-.140625C2.082031 0 1.511719-.144531.921875-.34375v-1.578125c.558594.292969 1.113281.519531 1.65625.671875.550781.148438 1.097656.21875 1.640625.21875.714844 0 1.269531-.125 1.65625-.375.382812-.246094.578125-.597656.578125-1.046875 0-.414063-.144531-.734375-.421875-.953125-.273438-.214844-.882812-.429688-1.828125-.640625l-.53125-.125c-.949219-.195313-1.636719-.5-2.0625-.90625-.417969-.414063-.625-.984375-.625-1.703125 0-.871094.304687-1.546875.921875-2.015625.621094-.476563 1.507812-.71875 2.65625-.71875.558594 0 1.085938.042969 1.578125.125.496094.085937.960937.210937 1.390625.375Z" style="stroke:none"/></symbol><symbol id="B" overflow="visible"><path d="M5.40625-11.296875c-.867188 0-1.519531.429687-1.953125 1.28125C3.023438-9.160156 2.8125-7.882812 2.8125-6.1875c0 1.699219.210938 2.976562.640625 3.828125.433594.84375 1.085937 1.265625 1.953125 1.265625.863281 0 1.515625-.421875 1.953125-1.265625.433594-.851563.65625-2.128906.65625-3.828125 0-1.695312-.222656-2.972656-.65625-3.828125-.4375-.851563-1.089844-1.28125-1.953125-1.28125Zm0-1.328125c1.382812 0 2.441406.554688 3.171875 1.65625C9.316406-9.875 9.6875-8.277344 9.6875-6.1875c0 2.085938-.371094 3.679688-1.109375 4.78125C7.847656-.3125 6.789062.234375 5.40625.234375c-1.386719 0-2.449219-.546875-3.1875-1.640625C1.488281-2.507812 1.125-4.101562 1.125-6.1875c0-2.089844.363281-3.6875 1.09375-4.78125.738281-1.101562 1.800781-1.65625 3.1875-1.65625Z" style="stroke:none"/></symbol><symbol id="C" overflow="visible"><path d="M9.109375-9.296875V0h-1.53125v-8.109375h-4.1875V0H1.84375v-8.109375H.390625v-1.1875H1.84375V-9.9375c0-1.019531.238281-1.769531.71875-2.25.476562-.488281 1.210938-.734375 2.203125-.734375H6.3125v1.28125H4.84375c-.542969 0-.925781.113281-1.140625.328125-.210937.21875-.3125.617188-.3125 1.1875v.828125Zm-1.53125-3.609375h1.53125v1.9375h-1.53125Z" style="stroke:none"/></symbol><symbol id="D" overflow="visible"><path d="M1.609375-12.921875H3.125V0H1.609375Z" style="stroke:none"/></symbol><symbol id="E" overflow="visible"><path d="M.828125-5.34375h4.46875v1.375H.828125Z" style="stroke:none"/></symbol><symbol id="F" overflow="visible"><path d="M9.328125-5.609375V0h-1.53125v-5.5625c0-.871094-.175781-1.53125-.515625-1.96875-.335938-.433594-.847656-.65625-1.53125-.65625-.835938 0-1.492188.269531-1.96875.796875-.46875.523437-.703125 1.238281-.703125 2.140625V0h-1.53125v-9.296875h1.53125v1.4375c.363281-.550781.789063-.960937 1.28125-1.234375.496094-.277344 1.070313-.421875 1.71875-.421875 1.070313 0 1.878906.335937 2.421875 1 .550781.65625.828125 1.628906.828125 2.90625Z" style="stroke:none"/></symbol><symbol id="G" overflow="visible"><path d="M2-2.109375h1.75V-.6875L2.375 1.96875H1.3125L2-.6875Z" style="stroke:none"/></symbol><symbol id="H" overflow="visible"><path d="M8.84375-7.515625c.371094-.683594.828125-1.191406 1.359375-1.515625.527344-.320312 1.160156-.484375 1.890625-.484375.957031 0 1.695312.339844 2.21875 1.015625.527344.679688.796875 1.644531.796875 2.890625V0h-1.53125v-5.5625c0-.882812-.160156-1.539062-.46875-1.96875-.3125-.433594-.800781-.65625-1.453125-.65625-.792969 0-1.417969.269531-1.875.796875-.460938.523437-.6875 1.238281-.6875 2.140625V0H7.5625v-5.5625c0-.894531-.164062-1.554688-.484375-1.984375-.3125-.425781-.800781-.640625-1.453125-.640625-.78125 0-1.402344.269531-1.859375.796875-.460937.523437-.6875 1.238281-.6875 2.140625V0h-1.53125v-9.296875h1.53125v1.4375c.351563-.558594.769531-.976563 1.25-1.25.488281-.269531 1.066406-.40625 1.734375-.40625.675781 0 1.25.175781 1.71875.515625.476562.34375.832031.839844 1.0625 1.484375Z" style="stroke:none"/></symbol><symbol id="I" overflow="visible"><path d="M1.875-.25v-1.53125c.414062.199219.835938.351562 1.265625.453125.433594.105469.863281.15625 1.28125.15625 1.101563 0 1.945313-.367187 2.53125-1.109375.582031-.746094.914063-1.878906 1-3.390625-.324219.46875-.730469.835937-1.21875 1.09375-.492187.25-1.039063.375-1.640625.375-1.242188 0-2.222656-.375-2.9375-1.125-.71875-.746094-1.078125-1.773437-1.078125-3.078125 0-1.269531.375-2.289062 1.125-3.0625.746094-.769531 1.75-1.15625 3-1.15625 1.433594 0 2.53125.554688 3.28125 1.65625C9.242188-9.875 9.625-8.277344 9.625-6.1875c0 1.960938-.464844 3.523438-1.390625 4.6875-.929687 1.15625-2.179687 1.734375-3.75 1.734375-.417969 0-.847656-.042969-1.28125-.125C2.773438.0234375 2.332031-.09375 1.875-.25Zm3.328125-5.265625c.746094 0 1.34375-.253906 1.78125-.765625.445313-.519531.671875-1.226562.671875-2.125 0-.882812-.226562-1.585938-.671875-2.109375-.4375-.519531-1.035156-.78125-1.78125-.78125-.75 0-1.351563.261719-1.796875.78125C2.96875-9.992188 2.75-9.289062 2.75-8.40625c0 .898438.21875 1.605469.65625 2.125.445312.511719 1.046875.765625 1.796875.765625Z" style="stroke:none"/></symbol><symbol id="J" overflow="visible"><path d="M2.109375-1.40625H4.84375v-9.453125l-2.96875.59375v-1.53125l2.953125-.59375h1.6875V-1.40625H9.25V0H2.109375Z" style="stroke:none"/></symbol><symbol id="K" overflow="visible"><path d="M5.40625-5.890625c-.804688 0-1.433594.214844-1.890625.640625-.449219.429688-.671875 1.019531-.671875 1.765625 0 .75.222656 1.339844.671875 1.765625.457031.417969 1.085937.625 1.890625.625.789062 0 1.414062-.210938 1.875-.640625.464844-.425781.703125-1.007813.703125-1.75 0-.746094-.230469-1.335937-.6875-1.765625-.460937-.425781-1.089844-.640625-1.890625-.640625ZM3.734375-6.59375c-.730469-.175781-1.300781-.507812-1.703125-1-.398438-.496094-.59375-1.101562-.59375-1.8125 0-.988281.351562-1.769531 1.0625-2.34375.707031-.582031 1.675781-.875 2.90625-.875 1.226562 0 2.191406.292969 2.890625.875.707031.574219 1.0625 1.355469 1.0625 2.34375 0 .710938-.207031 1.316406-.609375 1.8125-.398438.492188-.949219.824219-1.65625 1 .800781.1875 1.425781.558594 1.875 1.109375.457031.542969.6875 1.210937.6875 2 0 1.199219-.371094 2.121094-1.109375 2.765625-.730469.6367188-1.777344.953125-3.140625.953125-1.367188 0-2.417969-.3164062-3.15625-.953125-.730469-.644531-1.09375-1.566406-1.09375-2.765625 0-.789063.222656-1.457031.671875-2 .457031-.550781 1.09375-.921875 1.90625-1.109375Zm-.625-2.65625c0 .648438.195313 1.152344.59375 1.515625.402344.355469.972656.53125 1.703125.53125.714844 0 1.28125-.175781 1.6875-.53125.402344-.363281.609375-.867187.609375-1.515625 0-.632812-.207031-1.132812-.609375-1.5-.40625-.363281-.972656-.546875-1.6875-.546875-.730469 0-1.300781.183594-1.703125.546875-.398437.367188-.59375.867188-.59375 1.5Z" style="stroke:none"/></symbol><symbol id="L" overflow="visible"><path d="M1.390625-12.390625h7.96875v.71875L4.859375 0h-1.75L7.34375-10.984375H1.390625Z" style="stroke:none"/></symbol><symbol id="M" overflow="visible"><path d="M6.421875-10.9375 2.1875-4.3125h4.234375Zm-.4375-1.453125H8.09375V-4.3125h1.765625v1.390625H8.09375V0H6.421875v-2.921875H.828125v-1.625Z" style="stroke:none"/></symbol><symbol id="N" overflow="visible"><path d="M3.265625-1.40625h5.84375V0H1.25v-1.40625c.632812-.664062 1.5-1.550781 2.59375-2.65625 1.101562-1.113281 1.796875-1.828125 2.078125-2.140625.527344-.601563.898437-1.113281 1.109375-1.53125.214844-.425781.328125-.835937.328125-1.234375 0-.664062-.230469-1.203125-.6875-1.609375-.460937-.414063-1.066406-.625-1.8125-.625-.523437 0-1.074219.097656-1.65625.28125-.585937.179687-1.210937.449219-1.875.8125v-1.6875c.675781-.269531 1.304687-.472656 1.890625-.609375.582031-.144531 1.117188-.21875 1.609375-.21875 1.277344 0 2.300781.324219 3.0625.96875.769531.648438 1.15625 1.507812 1.15625 2.578125 0 .511719-.101563.996094-.296875 1.453125-.1875.449219-.535156.988281-1.03125 1.609375-.136719.15625-.582031.621094-1.328125 1.390625-.742187.761719-1.785156 1.835938-3.125 3.21875Z" style="stroke:none"/></symbol><symbol id="O" overflow="visible"><path d="M6.890625-6.6875c.808594.179688 1.441406.539062 1.890625 1.078125.445312.542969.671875 1.210937.671875 2 0 1.230469-.425781 2.179687-1.265625 2.84375-.835938.6679688-2.027344 1-3.578125 1C4.085938.234375 3.550781.179688 3 .078125 2.445312-.0117188 1.878906-.164062 1.296875-.375V-2c.464844.28125.976563.492188 1.53125.625.550781.136719 1.128906.203125 1.734375.203125 1.050781 0 1.847656-.207031 2.390625-.625.550781-.414063.828125-1.019531.828125-1.8125 0-.726563-.257812-1.296875-.765625-1.703125-.511719-.414062-1.226563-.625-2.140625-.625H3.4375v-1.375h1.515625c.820313 0 1.453125-.160156 1.890625-.484375.433594-.332031.65625-.8125.65625-1.4375 0-.632813-.230469-1.117187-.6875-1.453125-.449219-.339844-1.097656-.515625-1.9375-.515625-.460938 0-.957031.054687-1.484375.15625-.523437.09375-1.097656.246094-1.71875.453125v-1.5c.632813-.175781 1.226563-.304688 1.78125-.390625.558594-.089844 1.085937-.140625 1.578125-.140625 1.269531 0 2.273438.292969 3.015625.875.746094.585938 1.125 1.367188 1.125 2.34375 0 .6875-.199219 1.273438-.59375 1.75-.398437.46875-.960937.792969-1.6875.96875Z" style="stroke:none"/></symbol><symbol id="P" overflow="visible"><path d="M1.828125-12.390625h6.59375v1.40625H3.375V-7.9375c.238281-.082031.476562-.144531.71875-.1875.246094-.039062.492188-.0625.734375-.0625 1.382813 0 2.476563.382812 3.28125 1.140625.808594.75 1.21875 1.777344 1.21875 3.078125 0 1.335938-.417969 2.371094-1.25 3.109375-.824219.730469-1.992187 1.09375-3.5 1.09375-.523437 0-1.054687-.050781-1.59375-.140625C2.441406.0078125 1.882812-.117188 1.3125-.296875V-1.96875c.496094.273438 1.015625.476562 1.546875.609375.527344.125 1.09375.1875 1.6875.1875.957031 0 1.710937-.25 2.265625-.75.558594-.507813.84375-1.191406.84375-2.046875 0-.863281-.285156-1.546875-.84375-2.046875-.554688-.507813-1.308594-.765625-2.265625-.765625-.449219 0-.898437.054688-1.34375.15625-.449219.09375-.910156.246094-1.375.453125Z" style="stroke:none"/></symbol><symbol id="Q" overflow="visible"><path d="M5.609375-6.859375c-.75 0-1.351563.257813-1.796875.765625-.4375.511719-.65625 1.222656-.65625 2.125 0 .886719.21875 1.589844.65625 2.109375.445312.511719 1.046875.765625 1.796875.765625.746094 0 1.34375-.253906 1.78125-.765625.445313-.519531.671875-1.222656.671875-2.109375 0-.902344-.226562-1.613281-.671875-2.125-.4375-.507812-1.035156-.765625-1.78125-.765625ZM8.9375-12.125v1.53125c-.417969-.195312-.847656-.347656-1.28125-.453125-.429688-.101563-.851562-.15625-1.265625-.15625-1.105469 0-1.949219.378906-2.53125 1.125-.585937.742187-.917969 1.867187-1 3.375.320313-.476563.726563-.84375 1.21875-1.09375C4.574219-8.054688 5.125-8.1875 5.71875-8.1875c1.238281 0 2.21875.382812 2.9375 1.140625.726562.75 1.09375 1.777344 1.09375 3.078125 0 1.273438-.382812 2.292969-1.140625 3.0625-.75.761719-1.753906 1.140625-3 1.140625-1.429687 0-2.523437-.546875-3.28125-1.640625C1.566406-2.507812 1.1875-4.101562 1.1875-6.1875c0-1.957031.460938-3.519531 1.390625-4.6875.925781-1.164062 2.175781-1.75 3.75-1.75.414063 0 .835937.042969 1.265625.125.433594.085938.882812.210938 1.34375.375Z" style="stroke:none"/></symbol></defs><path d="M0 0h763v694H0z" style="fill:#fff;fill-opacity:1;stroke:none"/><path d="M157.40625 370.800781v-34.632812h11.9375v34.632812h-11.9375" style="stroke:none;fill-rule:evenodd;fill:#a5a585;fill-opacity:1"/><path d="M8.375195 12.018402h.591992v1.731641h-.591992" style="fill:none;stroke-width:.05;stroke-linecap:butt;stroke-linejoin:miter;stroke:#494936;stroke-opacity:1;stroke-miterlimit:10" transform="matrix(20 0 0 20 -10 95.799926)"/><path d="M8.967187 13.750043v-1.731641h.596485v1.731641h-.596485M9.563672 13.750043v-1.731641h.597266v1.731641h-.597266" style="fill-rule:evenodd;fill:#a5a585;fill-opacity:1;stroke-width:.05;stroke-linecap:butt;stroke-linejoin:miter;stroke:#494936;stroke-opacity:1;stroke-miterlimit:10" transform="matrix(20 0 0 20 -10 95.799926)"/><path d="m162.773438 330.800781-5.367188 5.367188h11.9375l5.382812-5.367188h-11.953124" style="stroke:none;fill-rule:evenodd;fill:#c9c9b6;fill-opacity:1"/><path d="m8.637891 11.750433-.262696.263086M8.375195 12.018402h.591992l.26836-.267969" style="fill:none;stroke-width:.05;stroke-linecap:butt;stroke-linejoin:miter;stroke:#494936;stroke-opacity:1;stroke-miterlimit:10" transform="matrix(20 0 0 20 -10 95.799926)"/><path d="m174.726562 330.800781-5.382812 5.367188h11.929688l5.375-5.367188h-11.921876" style="stroke:none;fill-rule:evenodd;fill:#c9c9b6;fill-opacity:1"/><path d="m9.235547 11.750433-.26836.267969h.596485l.268359-.267969" style="fill:none;stroke-width:.05;stroke-linecap:butt;stroke-linejoin:miter;stroke:#494936;stroke-opacity:1;stroke-miterlimit:10" transform="matrix(20 0 0 20 -10 95.799926)"/><path d="m186.648438 330.800781-5.375 5.367188h11.945312l5.375-5.367188h-11.945312" style="stroke:none;fill-rule:evenodd;fill:#c9c9b6;fill-opacity:1"/><path d="m9.832031 11.750433-.268359.267969h.597266l.268359-.267969" style="fill:none;stroke-width:.05;stroke-linecap:butt;stroke-linejoin:miter;stroke:#494936;stroke-opacity:1;stroke-miterlimit:10" transform="matrix(20 0 0 20 -10 95.799926)"/><path d="m198.59375 365.726562-5.375 5.074219v-34.632812l5.375-5.367188v34.925781" style="stroke:none;fill-rule:evenodd;fill:#7a7a5a;fill-opacity:1"/><path d="m10.429688 13.496332-.26875.253711v-1.731641l.268359-.267969M10.429688 11.750433v1.745899" style="fill:none;stroke-width:.05;stroke-linecap:butt;stroke-linejoin:miter;stroke:#494936;stroke-opacity:1;stroke-miterlimit:10" transform="matrix(20 0 0 20 -10 95.799926)"/><path d="M9.65332 12.406488v-.313281h.432813v.313281H9.65332M9.65332 12.794379v-.297852h.432813v.297852H9.65332M9.65332 13.644965v-.298633h.432813v.298633H9.65332" style="fill-rule:evenodd;fill:#93936c;fill-opacity:1;stroke-width:.05;stroke-linecap:butt;stroke-linejoin:miter;stroke:#494936;stroke-opacity:1;stroke-miterlimit:10" transform="matrix(20 0 0 20 -10 95.799926)"/><path d="m12.103516 27.516254.010937-.010938.00957-.011328.008789-.012109.008008-.011719.007032-.011719.005273-.012304.004883-.012305.002734-.0125.002344-.012891.001172-.012109-.000586-.0125-.001172-.012695-.002734-.012305-.003125-.012891-.004688-.012304-.00625-.011915-.00664-.012109-.008204-.011719-.009375-.011328-.009961-.011523L12.1 27.264496l-.011914-.010742-.013477-.010547-.013671-.009766-.01504-.00957-.01582-.008789-.017187-.008789-.016993-.008789-.018554-.007617-.01875-.007032-.019922-.006836-.019922-.006054-.020703-.005664-.021484-.004883-.02129-.004688-.02207-.003515-.022265-.003321-.022461-.003125-.022852-.001757-.023242-.001563-.022852-.000781h-.023047l-.023242.000195-.023437.001172-.022852.002148-.022851.001758-.021875.003125-.022266.003906-.021875.004102-.021484.004688-.020704.005273-.020898.005469-.019531.007031-.019727.006836-.018359.007226-.017578.008008-.017578.008789-.015821.008789-.01582.008985-.014648.009961-.013477.009961-.012305.010547-.011718.010937-.011133.011328-.009961.011524" style="fill:none;stroke-width:.06;stroke-linecap:butt;stroke-linejoin:miter;stroke:#626248;stroke-opacity:1;stroke-miterlimit:10" transform="matrix(20 0 0 20 -10 95.799926)"/><path d="m12.100586 27.504535.009961-.010547.009375-.011523.008008-.010743.007226-.011718.005664-.011524.004688-.011914.003711-.012109.002734-.012305.001172-.011914.000195-.012305-.000586-.011718-.001953-.012305-.003515-.011719-.004102-.012304-.005664-.011524-.006641-.011719-.007617-.011328-.008789-.011133-.009765-.010937-.011133-.010742-.011719-.010352-.012109-.010156-.014063-.009766-.015039-.008984-.01543-.00918-.016211-.008398-.016992-.008008-.018164-.007617-.01875-.006641-.01875-.006836-.020117-.005859-.020313-.005469-.020703-.005273-.021484-.004102-.02168-.003906-.021679-.003516-.022266-.002344-.022461-.001757-.022852-.001368-.022851-.000976h-.022852l-.022656.000391-.022461.001171-.022851.001954-.022657.001757-.022461.003321-.021289.003125-.021679.003906-.020899.004687-.021094.005274-.019531.005859-.019922.006055-.01914.006836-.017774.007226-.017578.008008-.016797.007813-.016015.008789-.015235.009179-.014453.009375-.013476.010157-.011914.009961-.011133.010547-.010938.010546-.008984.010938" style="fill:none;stroke-width:.05;stroke-linecap:butt;stroke-linejoin:miter;stroke:#ecece7;stroke-opacity:1;stroke-miterlimit:10" transform="matrix(20 0 0 20 -10 95.799926)"/><path d="m11.775 27.721527.144727-.190039h.256445l-.133399.190039H11.775" style="fill-rule:evenodd;fill:#c9c9b6;fill-opacity:1;stroke-width:.05;stroke-linecap:butt;stroke-linejoin:miter;stroke:#494936;stroke-opacity:1;stroke-miterlimit:10" transform="matrix(20 0 0 20 -10 95.799926)"/><path d="m12.042773 27.800043.133399-.145117v-.123438l-.133399.190039v.078516" style="fill-rule:evenodd;fill:#7a7a5a;fill-opacity:1;stroke-width:.05;stroke-linecap:butt;stroke-linejoin:miter;stroke:#494936;stroke-opacity:1;stroke-miterlimit:10" transform="matrix(20 0 0 20 -10 95.799926)"/><path d="M11.775 27.721527h.267773v.066992H11.775v-.066992" style="fill-rule:evenodd;fill:#b7b79d;fill-opacity:1;stroke-width:.05;stroke-linecap:butt;stroke-linejoin:miter;stroke:#494936;stroke-opacity:1;stroke-miterlimit:10" transform="matrix(20 0 0 20 -10 95.799926)"/><path d="M10.258594 27.196527h1.192969v.26836h-1.192969v-.26836" style="fill-rule:evenodd;fill:#a5a585;fill-opacity:1;stroke-width:.05;stroke-linecap:butt;stroke-linejoin:miter;stroke:#494936;stroke-opacity:1;stroke-miterlimit:10" transform="matrix(20 0 0 20 -10 95.799926)"/><path d="m11.440234 27.464887.222852-.223829.011328-.178515-.23418.223437v.178907" style="fill-rule:evenodd;fill:#626248;fill-opacity:1;stroke-width:.05;stroke-linecap:butt;stroke-linejoin:miter;stroke:#494936;stroke-opacity:1;stroke-miterlimit:10" transform="matrix(20 0 0 20 -10 95.799926)"/><path d="m9.923828 27.721527.222852-.279101h1.538672l-.222852.279101H9.923828" style="fill-rule:evenodd;fill:#c9c9b6;fill-opacity:1;stroke-width:.05;stroke-linecap:butt;stroke-linejoin:miter;stroke:#494936;stroke-opacity:1;stroke-miterlimit:10" transform="matrix(20 0 0 20 -10 95.799926)"/><path d="m11.4625 27.788519.222852-.223047v-.123046l-.222852.279101v.066992" style="fill-rule:evenodd;fill:#7a7a5a;fill-opacity:1;stroke-width:.05;stroke-linecap:butt;stroke-linejoin:miter;stroke:#494936;stroke-opacity:1;stroke-miterlimit:10" transform="matrix(20 0 0 20 -10 95.799926)"/><path d="M9.923828 27.721527H11.4625v.066992H9.923828v-.066992" style="fill-rule:evenodd;fill:#b7b79d;fill-opacity:1;stroke-width:.05;stroke-linecap:butt;stroke-linejoin:miter;stroke:#494936;stroke-opacity:1;stroke-miterlimit:10" transform="matrix(20 0 0 20 -10 95.799926)"/><path d="m11.529492 27.308246.245508-.256641v-.066992l-.245508.256445v.067188" style="fill-rule:evenodd;fill:#7a7a5a;fill-opacity:1;stroke-width:.05;stroke-linecap:butt;stroke-linejoin:miter;stroke:#494936;stroke-opacity:1;stroke-miterlimit:10" transform="matrix(20 0 0 20 -10 95.799926)"/><path d="M11.529492 27.308246h-1.405469v-.067188h1.405469v.067188M11.775 26.984613h-1.405469l-.245508.256445h1.405469l.245508-.256445" style="fill-rule:evenodd;fill:#b7b79d;fill-opacity:1;stroke-width:.05;stroke-linecap:butt;stroke-linejoin:miter;stroke:#494936;stroke-opacity:1;stroke-miterlimit:10" transform="matrix(20 0 0 20 -10 95.799926)"/><path d="M10.302734 27.062543h1.19375l.044141.055469H10.34707l-.044336-.055469" style="fill-rule:evenodd;fill:#7a7a5a;fill-opacity:1;stroke-width:.05;stroke-linecap:butt;stroke-linejoin:miter;stroke:#494936;stroke-opacity:1;stroke-miterlimit:10" transform="matrix(20 0 0 20 -10 95.799926)"/><path d="m11.629688 26.917426-.133204.145117.044141.055469.133789-.133399-.044726-.067187" style="fill-rule:evenodd;fill:#626248;fill-opacity:1;stroke-width:.05;stroke-linecap:butt;stroke-linejoin:miter;stroke:#494936;stroke-opacity:1;stroke-miterlimit:10" transform="matrix(20 0 0 20 -10 95.799926)"/><path d="m10.202344 25.945551.156054-.145508H11.775l-.15625.145508h-1.416406" style="fill-rule:evenodd;fill:#c9c9b6;fill-opacity:1;stroke-width:.05;stroke-linecap:butt;stroke-linejoin:miter;stroke:#494936;stroke-opacity:1;stroke-miterlimit:10" transform="matrix(20 0 0 20 -10 95.799926)"/><path d="M194.046875 614.710938h28.546875v22.566406h-28.546875v-22.566406" style="stroke:none;fill-rule:evenodd;fill:#b7b79d;fill-opacity:1"/><path d="M10.202344 25.945551h1.426953v1.128125h-1.426953v-1.128125" style="fill:none;stroke-width:.05;stroke-linecap:butt;stroke-linejoin:miter;stroke:#494936;stroke-opacity:1;stroke-miterlimit:10" transform="matrix(20 0 0 20 -10 95.799926)"/><path d="M196.496094 617.609375h23.644531v17.429687h-23.644531v-17.429687" style="stroke:none;fill-rule:evenodd;fill:#fff;fill-opacity:1"/><path d="M10.324805 26.090472h1.181836v.87129h-1.181836v-.87129" style="fill:none;stroke-width:.05;stroke-linecap:butt;stroke-linejoin:miter;stroke:#494936;stroke-opacity:1;stroke-miterlimit:10" transform="matrix(20 0 0 20 -10 95.799926)"/><path d="m11.61875 27.062543.15625-.15625v-1.10625l-.15625.145508v1.116992" style="fill-rule:evenodd;fill:#7a7a5a;fill-opacity:1;stroke-width:.05;stroke-linecap:butt;stroke-linejoin:miter;stroke:#494936;stroke-opacity:1;stroke-miterlimit:10" transform="matrix(20 0 0 20 -10 95.799926)"/><path d="M338.707031 40.109375V5.476562h11.9375v34.632813h-11.9375" style="stroke:none;fill-rule:evenodd;fill:#a5a585;fill-opacity:1"/><path d="M17.440234-4.516168h.591993v1.73164h-.591993" style="fill:none;stroke-width:.05;stroke-linecap:butt;stroke-linejoin:miter;stroke:#494936;stroke-opacity:1;stroke-miterlimit:10" transform="matrix(20 0 0 20 -10 95.799926)"/><path d="M18.032227-2.784528v-1.73164h.596484v1.73164h-.596484M18.628711-2.784528v-1.73164h.597266v1.73164h-.597266" style="fill-rule:evenodd;fill:#a5a585;fill-opacity:1;stroke-width:.05;stroke-linecap:butt;stroke-linejoin:miter;stroke:#494936;stroke-opacity:1;stroke-miterlimit:10" transform="matrix(20 0 0 20 -10 95.799926)"/><path d="m344.074219.109375-5.367188 5.367187h11.9375l5.382813-5.367187h-11.953125" style="stroke:none;fill-rule:evenodd;fill:#c9c9b6;fill-opacity:1"/><path d="m17.70293-4.784137-.262696.263086M17.440234-4.516168h.591993l.268359-.267969" style="fill:none;stroke-width:.05;stroke-linecap:butt;stroke-linejoin:miter;stroke:#494936;stroke-opacity:1;stroke-miterlimit:10" transform="matrix(20 0 0 20 -10 95.799926)"/><path d="m356.027344.109375-5.382813 5.367187h11.929688l5.375-5.367187h-11.921875" style="stroke:none;fill-rule:evenodd;fill:#c9c9b6;fill-opacity:1"/><path d="m18.300586-4.784137-.268359.267969h.596484l.268359-.267969" style="fill:none;stroke-width:.05;stroke-linecap:butt;stroke-linejoin:miter;stroke:#494936;stroke-opacity:1;stroke-miterlimit:10" transform="matrix(20 0 0 20 -10 95.799926)"/><path d="m367.949219.109375-5.375 5.367187h11.945312l5.375-5.367187h-11.945312" style="stroke:none;fill-rule:evenodd;fill:#c9c9b6;fill-opacity:1"/><path d="m18.89707-4.784137-.268359.267969h.597266l.268359-.267969" style="fill:none;stroke-width:.05;stroke-linecap:butt;stroke-linejoin:miter;stroke:#494936;stroke-opacity:1;stroke-miterlimit:10" transform="matrix(20 0 0 20 -10 95.799926)"/><path d="m379.894531 35.035156-5.375 5.074219V5.476562l5.375-5.367187v34.925781" style="stroke:none;fill-rule:evenodd;fill:#7a7a5a;fill-opacity:1"/><path d="m19.494727-3.038238-.26875.25371v-1.73164l.268359-.267969M19.494727-4.784137v1.745899" style="fill:none;stroke-width:.05;stroke-linecap:butt;stroke-linejoin:miter;stroke:#494936;stroke-opacity:1;stroke-miterlimit:10" transform="matrix(20 0 0 20 -10 95.799926)"/><path d="M18.718359-4.128082v-.313281h.432813v.313281h-.432813M18.718359-3.740192v-.297851h.432813v.297851h-.432813M18.718359-2.889606v-.298632h.432813v.298632h-.432813" style="fill-rule:evenodd;fill:#93936c;fill-opacity:1;stroke-width:.05;stroke-linecap:butt;stroke-linejoin:miter;stroke:#494936;stroke-opacity:1;stroke-miterlimit:10" transform="matrix(20 0 0 20 -10 95.799926)"/><path d="M507.707031 255.109375v-34.632813h11.9375v34.632813h-11.9375" style="stroke:none;fill-rule:evenodd;fill:#a5a585;fill-opacity:1"/><path d="M25.890234 6.233832h.591993v1.73164h-.591993" style="fill:none;stroke-width:.05;stroke-linecap:butt;stroke-linejoin:miter;stroke:#494936;stroke-opacity:1;stroke-miterlimit:10" transform="matrix(20 0 0 20 -10 95.799926)"/><path d="M26.482227 7.965472v-1.73164h.596484v1.73164h-.596484" style="fill-rule:evenodd;fill:#a5a585;fill-opacity:1;stroke-width:.05;stroke-linecap:butt;stroke-linejoin:miter;stroke:#494936;stroke-opacity:1;stroke-miterlimit:10" transform="matrix(20 0 0 20 -10 95.799926)"/><path d="M27.078711 7.965472v-1.73164h.597266v1.73164h-.597266" style="fill-rule:evenodd;fill:#a5a585;fill-opacity:1;stroke-width:.05;stroke-linecap:butt;stroke-linejoin:miter;stroke:#494936;stroke-opacity:1;stroke-miterlimit:10" transform="matrix(20 0 0 20 -10 95.799926)"/><path d="m513.074219 215.109375-5.367188 5.367187h11.9375l5.382813-5.367187h-11.953125" style="stroke:none;fill-rule:evenodd;fill:#c9c9b6;fill-opacity:1"/><path d="m26.15293 5.965863-.262696.263086M25.890234 6.233832h.591993l.268359-.267969" style="fill:none;stroke-width:.05;stroke-linecap:butt;stroke-linejoin:miter;stroke:#494936;stroke-opacity:1;stroke-miterlimit:10" transform="matrix(20 0 0 20 -10 95.799926)"/><path d="m525.027344 215.109375-5.382813 5.367187h11.929688l5.375-5.367187h-11.921875" style="stroke:none;fill-rule:evenodd;fill:#c9c9b6;fill-opacity:1"/><path d="m26.750586 5.965863-.268359.267969h.596484l.268359-.267969" style="fill:none;stroke-width:.05;stroke-linecap:butt;stroke-linejoin:miter;stroke:#494936;stroke-opacity:1;stroke-miterlimit:10" transform="matrix(20 0 0 20 -10 95.799926)"/><path d="m536.949219 215.109375-5.375 5.367187h11.945312l5.375-5.367187h-11.945312" style="stroke:none;fill-rule:evenodd;fill:#c9c9b6;fill-opacity:1"/><path d="m27.34707 5.965863-.268359.267969h.597266l.268359-.267969" style="fill:none;stroke-width:.05;stroke-linecap:butt;stroke-linejoin:miter;stroke:#494936;stroke-opacity:1;stroke-miterlimit:10" transform="matrix(20 0 0 20 -10 95.799926)"/><path d="m548.894531 250.035156-5.375 5.074219v-34.632813l5.375-5.367187v34.925781" style="stroke:none;fill-rule:evenodd;fill:#7a7a5a;fill-opacity:1"/><path d="m27.944727 7.711762-.26875.25371v-1.73164l.268359-.267969M27.944727 5.965863v1.745899" style="fill:none;stroke-width:.05;stroke-linecap:butt;stroke-linejoin:miter;stroke:#494936;stroke-opacity:1;stroke-miterlimit:10" transform="matrix(20 0 0 20 -10 95.799926)"/><path d="M27.168359 6.621918v-.313281h.432813v.313281h-.432813M27.168359 7.009808v-.297851h.432813v.297851h-.432813M27.168359 7.860394v-.298632h.432813v.298632h-.432813" style="fill-rule:evenodd;fill:#93936c;fill-opacity:1;stroke-width:.05;stroke-linecap:butt;stroke-linejoin:miter;stroke:#494936;stroke-opacity:1;stroke-miterlimit:10" transform="matrix(20 0 0 20 -10 95.799926)"/><path d="M548.707031 573.109375v-34.632813h11.9375v34.632813h-11.9375" style="stroke:none;fill-rule:evenodd;fill:#a5a585;fill-opacity:1"/><path d="M27.940234 22.133832h.591993v1.73164h-.591993" style="fill:none;stroke-width:.05;stroke-linecap:butt;stroke-linejoin:miter;stroke:#494936;stroke-opacity:1;stroke-miterlimit:10" transform="matrix(20 0 0 20 -10 95.799926)"/><path d="M28.532227 23.865472v-1.73164h.596484v1.73164h-.596484M29.128711 23.865472v-1.73164h.597266v1.73164h-.597266" style="fill-rule:evenodd;fill:#a5a585;fill-opacity:1;stroke-width:.05;stroke-linecap:butt;stroke-linejoin:miter;stroke:#494936;stroke-opacity:1;stroke-miterlimit:10" transform="matrix(20 0 0 20 -10 95.799926)"/><path d="m554.074219 533.109375-5.367188 5.367187h11.9375l5.382813-5.367187h-11.953125" style="stroke:none;fill-rule:evenodd;fill:#c9c9b6;fill-opacity:1"/><path d="m28.20293 21.865863-.262696.263086M27.940234 22.133832h.591993l.268359-.267969" style="fill:none;stroke-width:.05;stroke-linecap:butt;stroke-linejoin:miter;stroke:#494936;stroke-opacity:1;stroke-miterlimit:10" transform="matrix(20 0 0 20 -10 95.799926)"/><path d="m566.027344 533.109375-5.382813 5.367187h11.929688l5.375-5.367187h-11.921875" style="stroke:none;fill-rule:evenodd;fill:#c9c9b6;fill-opacity:1"/><path d="m28.800586 21.865863-.268359.267969h.596484l.268359-.267969" style="fill:none;stroke-width:.05;stroke-linecap:butt;stroke-linejoin:miter;stroke:#494936;stroke-opacity:1;stroke-miterlimit:10" transform="matrix(20 0 0 20 -10 95.799926)"/><path d="m577.949219 533.109375-5.375 5.367187h11.945312l5.375-5.367187h-11.945312" style="stroke:none;fill-rule:evenodd;fill:#c9c9b6;fill-opacity:1"/><path d="m29.39707 21.865863-.268359.267969h.597266l.268359-.267969" style="fill:none;stroke-width:.05;stroke-linecap:butt;stroke-linejoin:miter;stroke:#494936;stroke-opacity:1;stroke-miterlimit:10" transform="matrix(20 0 0 20 -10 95.799926)"/><path d="m589.894531 568.035156-5.375 5.074219v-34.632813l5.375-5.367187v34.925781" style="stroke:none;fill-rule:evenodd;fill:#7a7a5a;fill-opacity:1"/><path d="m29.994727 23.611762-.26875.25371v-1.73164l.268359-.267969M29.994727 21.865863v1.745899" style="fill:none;stroke-width:.05;stroke-linecap:butt;stroke-linejoin:miter;stroke:#494936;stroke-opacity:1;stroke-miterlimit:10" transform="matrix(20 0 0 20 -10 95.799926)"/><path d="M29.218359 22.521918v-.313281h.432813v.313281h-.432813M29.218359 22.909808v-.297851h.432813v.297851h-.432813M29.218359 23.760199v-.298633h.432813v.298633h-.432813" style="fill-rule:evenodd;fill:#93936c;fill-opacity:1;stroke-width:.05;stroke-linecap:butt;stroke-linejoin:miter;stroke:#494936;stroke-opacity:1;stroke-miterlimit:10" transform="matrix(20 0 0 20 -10 95.799926)"/><path d="M8.830469 14.26684c-1.204883 3.895507-.604688 8.125781 1.636328 11.532226" style="fill:none;stroke-width:.15;stroke-linecap:butt;stroke-linejoin:miter;stroke:#000;stroke-opacity:1;stroke-miterlimit:10" transform="matrix(20 0 0 20 -10 95.799926)"/><path d="m8.945117 13.910199.069141.554688-.193946-.201172-.277343.03457Z" style="fill-rule:evenodd;fill:#000;fill-opacity:1;stroke-width:.15;stroke-linecap:butt;stroke-linejoin:miter;stroke:#000;stroke-opacity:1;stroke-miterlimit:10" transform="matrix(20 0 0 20 -10 95.799926)"/><g style="fill:#00f;fill-opacity:1"><use xlink:href="#a" y="552.800781"/><use xlink:href="#b" x="5.957031" y="552.800781"/><use xlink:href="#c" x="11.386719" y="552.800781"/><use xlink:href="#d" x="16.757812" y="552.800781"/><use xlink:href="#e" x="30.605469" y="552.800781"/><use xlink:href="#f" x="35.3125" y="552.800781"/><use xlink:href="#e" x="45.117188" y="552.800781"/><use xlink:href="#g" x="49.824219" y="552.800781"/><use xlink:href="#h" x="60.566406" y="552.800781"/><use xlink:href="#i" x="70.976562" y="552.800781"/><use xlink:href="#e" x="81.71875" y="552.800781"/><use xlink:href="#j" x="86.425781" y="552.800781"/><use xlink:href="#c" x="96.796875" y="552.800781"/><use xlink:href="#k" x="102.167969" y="552.800781"/><use xlink:href="#b" x="112.519531" y="552.800781"/><use xlink:href="#l" x="119.199219" y="552.800781"/><use xlink:href="#m" x="129.941406" y="552.800781"/><use xlink:href="#n" x="135.3125" y="552.800781"/><use xlink:href="#m" x="146.894531" y="552.800781"/><use xlink:href="#o" x="152.265625" y="552.800781"/></g><g style="fill:#000;fill-opacity:1"><use xlink:href="#p" x="135.601562" y="690.75"/><use xlink:href="#q" x="146.324219" y="690.75"/><use xlink:href="#q" x="152.964844" y="690.75"/><use xlink:href="#g" x="159.605469" y="690.75"/><use xlink:href="#r" x="170.347656" y="690.75"/><use xlink:href="#s" x="176.050781" y="690.75"/><use xlink:href="#s" x="181.753906" y="690.75"/><use xlink:href="#a" x="187.457031" y="690.75"/><use xlink:href="#b" x="193.414062" y="690.75"/><use xlink:href="#c" x="198.84375" y="690.75"/><use xlink:href="#d" x="204.214844" y="690.75"/><use xlink:href="#e" x="218.0625" y="690.75"/><use xlink:href="#f" x="222.769531" y="690.75"/><use xlink:href="#e" x="232.574219" y="690.75"/><use xlink:href="#g" x="237.28125" y="690.75"/><use xlink:href="#h" x="248.023438" y="690.75"/><use xlink:href="#i" x="258.433594" y="690.75"/><use xlink:href="#e" x="269.175781" y="690.75"/><use xlink:href="#j" x="273.882812" y="690.75"/><use xlink:href="#c" x="284.253906" y="690.75"/><use xlink:href="#k" x="289.625" y="690.75"/><use xlink:href="#b" x="299.976562" y="690.75"/><use xlink:href="#l" x="306.65625" y="690.75"/><use xlink:href="#s" x="317.398438" y="690.75"/></g><g style="fill:#000;fill-opacity:1"><use xlink:href="#t" x="27.601562" y="347.75"/><use xlink:href="#h" x="38.34375" y="347.75"/><use xlink:href="#b" x="48.753906" y="347.75"/><use xlink:href="#u" x="55.707031" y="347.75"/><use xlink:href="#h" x="65.726562" y="347.75"/><use xlink:href="#v" x="76.136719" y="347.75"/><use xlink:href="#b" x="86.859375" y="347.75"/></g><g style="fill:#000;fill-opacity:1"><use xlink:href="#w" x="27.601562" y="368.917969"/><use xlink:href="#x" x="40.628906" y="368.917969"/><use xlink:href="#t" x="53.285156" y="368.917969"/><use xlink:href="#m" x="64.027344" y="368.917969"/><use xlink:href="#b" x="69.398438" y="368.917969"/><use xlink:href="#y" x="76" y="368.917969"/><use xlink:href="#z" x="86.410156" y="368.917969"/><use xlink:href="#v" x="95.707031" y="368.917969"/><use xlink:href="#b" x="106.429688" y="368.917969"/><use xlink:href="#A" x="113.382812" y="368.917969"/><use xlink:href="#e" x="122.191406" y="368.917969"/><use xlink:href="#a" x="126.898438" y="368.917969"/></g><path d="M16.989648-2.82066C12.303125.567426 9.486914 5.965668 9.389258 11.747894" style="fill:none;stroke-width:.15;stroke-linecap:butt;stroke-linejoin:miter;stroke:#000;stroke-opacity:1;stroke-miterlimit:10" transform="matrix(20 0 0 20 -10 95.799926)"/><path d="m17.295117-3.037848-.273242.487695-.036914-.277148-.243945-.136523Z" style="fill-rule:evenodd;fill:#000;fill-opacity:1;stroke-width:.15;stroke-linecap:butt;stroke-linejoin:miter;stroke:#000;stroke-opacity:1;stroke-miterlimit:10" transform="matrix(20 0 0 20 -10 95.799926)"/><g style="fill:#00f;fill-opacity:1"><use xlink:href="#k" x="330.601562" y="125.75"/><use xlink:href="#b" x="340.953125" y="125.75"/><use xlink:href="#l" x="347.632812" y="125.75"/><use xlink:href="#m" x="358.375" y="125.75"/><use xlink:href="#x" x="363.746094" y="125.75"/><use xlink:href="#t" x="376.402344" y="125.75"/><use xlink:href="#m" x="387.144531" y="125.75"/><use xlink:href="#j" x="392.515625" y="125.75"/><use xlink:href="#B" x="402.886719" y="125.75"/><use xlink:href="#c" x="413.648438" y="125.75"/><use xlink:href="#k" x="419.019531" y="125.75"/><use xlink:href="#b" x="429.371094" y="125.75"/><use xlink:href="#l" x="436.050781" y="125.75"/><use xlink:href="#c" x="446.792969" y="125.75"/><use xlink:href="#j" x="452.164062" y="125.75"/><use xlink:href="#C" x="462.535156" y="125.75"/><use xlink:href="#D" x="473.199219" y="125.75"/><use xlink:href="#e" x="477.90625" y="125.75"/><use xlink:href="#j" x="482.613281" y="125.75"/><use xlink:href="#A" x="492.984375" y="125.75"/><use xlink:href="#E" x="501.792969" y="125.75"/><use xlink:href="#F" x="507.90625" y="125.75"/><use xlink:href="#A" x="518.628906" y="125.75"/><use xlink:href="#q" x="527.4375" y="125.75"/><use xlink:href="#c" x="534.078125" y="125.75"/><use xlink:href="#e" x="539.449219" y="125.75"/><use xlink:href="#F" x="544.15625" y="125.75"/><use xlink:href="#a" x="554.878906" y="125.75"/><use xlink:href="#k" x="560.835938" y="125.75"/><use xlink:href="#G" x="571.1875" y="125.75"/><use xlink:href="#m" x="576.558594" y="125.75"/><use xlink:href="#c" x="581.929688" y="125.75"/><use xlink:href="#c" x="587.300781" y="125.75"/><use xlink:href="#c" x="592.671875" y="125.75"/></g><g style="fill:#000;fill-opacity:1"><use xlink:href="#b" x="260.601562" y="16.75"/><use xlink:href="#k" x="267.203125" y="16.75"/><use xlink:href="#k" x="277.554688" y="16.75"/><use xlink:href="#q" x="287.90625" y="16.75"/><use xlink:href="#m" x="294.546875" y="16.75"/><use xlink:href="#x" x="299.917969" y="16.75"/><use xlink:href="#t" x="312.574219" y="16.75"/></g><g style="fill:#000;fill-opacity:1"><use xlink:href="#j" x="391.601562" y="19.75"/><use xlink:href="#c" x="401.972656" y="19.75"/><use xlink:href="#b" x="407.34375" y="19.75"/><use xlink:href="#k" x="413.945312" y="19.75"/><use xlink:href="#k" x="424.296875" y="19.75"/><use xlink:href="#q" x="434.648438" y="19.75"/><use xlink:href="#E" x="441.289062" y="19.75"/><use xlink:href="#A" x="447.402344" y="19.75"/><use xlink:href="#h" x="456.210938" y="19.75"/><use xlink:href="#b" x="466.621094" y="19.75"/><use xlink:href="#u" x="473.574219" y="19.75"/><use xlink:href="#h" x="483.59375" y="19.75"/><use xlink:href="#b" x="494.003906" y="19.75"/><use xlink:href="#A" x="500.957031" y="19.75"/><use xlink:href="#c" x="509.765625" y="19.75"/><use xlink:href="#F" x="515.136719" y="19.75"/><use xlink:href="#h" x="525.859375" y="19.75"/><use xlink:href="#q" x="536.269531" y="19.75"/></g><g style="fill:#000;fill-opacity:1"><use xlink:href="#j" x="567.601562" y="220.75"/><use xlink:href="#B" x="577.972656" y="220.75"/><use xlink:href="#c" x="588.734375" y="220.75"/><use xlink:href="#k" x="594.105469" y="220.75"/><use xlink:href="#b" x="604.457031" y="220.75"/><use xlink:href="#l" x="611.136719" y="220.75"/><use xlink:href="#c" x="621.878906" y="220.75"/><use xlink:href="#j" x="627.25" y="220.75"/><use xlink:href="#C" x="637.621094" y="220.75"/><use xlink:href="#D" x="648.285156" y="220.75"/><use xlink:href="#e" x="652.992188" y="220.75"/><use xlink:href="#j" x="657.699219" y="220.75"/><use xlink:href="#A" x="668.070312" y="220.75"/><use xlink:href="#E" x="676.878906" y="220.75"/><use xlink:href="#F" x="682.992188" y="220.75"/><use xlink:href="#A" x="693.714844" y="220.75"/><use xlink:href="#q" x="702.523438" y="220.75"/><use xlink:href="#c" x="709.164062" y="220.75"/><use xlink:href="#e" x="714.535156" y="220.75"/><use xlink:href="#F" x="719.242188" y="220.75"/><use xlink:href="#a" x="729.964844" y="220.75"/><use xlink:href="#k" x="735.921875" y="220.75"/></g><path d="M10.532031 11.318597c3.254688-4.273437 5.817188-9.032031 7.59375-14.101367" style="fill:none;stroke-width:.15;stroke-linecap:butt;stroke-linejoin:miter;stroke:#000;stroke-opacity:1;stroke-miterlimit:10" transform="matrix(20 0 0 20 -10 95.799926)"/><path d="m10.303906 11.616254.109961-.548242.120508.252343.274023.054883Z" style="fill-rule:evenodd;fill:#000;fill-opacity:1;stroke-width:.15;stroke-linecap:butt;stroke-linejoin:miter;stroke:#000;stroke-opacity:1;stroke-miterlimit:10" transform="matrix(20 0 0 20 -10 95.799926)"/><path d="M25.341016 6.946332c-5.367383.092578-10.574805 1.842383-14.908594 5.010156" style="fill:none;stroke-width:.15;stroke-linecap:butt;stroke-linejoin:miter;stroke:#000;stroke-opacity:1;stroke-miterlimit:10" transform="matrix(20 0 0 20 -10 95.799926)"/><path d="m25.71582 6.942035-.500976.248242.125976-.249609-.124023-.250391Z" style="fill-rule:evenodd;fill:#000;fill-opacity:1;stroke-width:.15;stroke-linecap:butt;stroke-linejoin:miter;stroke:#000;stroke-opacity:1;stroke-miterlimit:10" transform="matrix(20 0 0 20 -10 95.799926)"/><path d="M10.973828 12.708832c5.426172-.307813 10.628906-2.26582 14.911524-5.611719" style="fill:none;stroke-width:.15;stroke-linecap:butt;stroke-linejoin:miter;stroke:#000;stroke-opacity:1;stroke-miterlimit:10" transform="matrix(20 0 0 20 -10 95.799926)"/><path d="m10.599414 12.727972.49043-.267968-.115821.254297.133985.245312Z" style="fill-rule:evenodd;fill:#000;fill-opacity:1;stroke-width:.15;stroke-linecap:butt;stroke-linejoin:miter;stroke:#000;stroke-opacity:1;stroke-miterlimit:10" transform="matrix(20 0 0 20 -10 95.799926)"/><g style="fill:#00f;fill-opacity:1"><use xlink:href="#d" x="394.601563" y="327.75"/><use xlink:href="#e" x="408.449219" y="327.75"/><use xlink:href="#f" x="413.15625" y="327.75"/><use xlink:href="#e" x="422.960938" y="327.75"/><use xlink:href="#g" x="427.667969" y="327.75"/><use xlink:href="#h" x="438.410156" y="327.75"/><use xlink:href="#i" x="448.820313" y="327.75"/><use xlink:href="#e" x="459.5625" y="327.75"/><use xlink:href="#j" x="464.269531" y="327.75"/><use xlink:href="#c" x="474.640625" y="327.75"/><use xlink:href="#k" x="480.011719" y="327.75"/><use xlink:href="#b" x="490.363281" y="327.75"/><use xlink:href="#l" x="497.042969" y="327.75"/><use xlink:href="#m" x="507.785156" y="327.75"/><use xlink:href="#x" x="513.15625" y="327.75"/><use xlink:href="#t" x="525.8125" y="327.75"/><use xlink:href="#m" x="536.554688" y="327.75"/><use xlink:href="#F" x="541.925781" y="327.75"/><use xlink:href="#A" x="552.648438" y="327.75"/><use xlink:href="#B" x="561.457031" y="327.75"/><use xlink:href="#c" x="572.21875" y="327.75"/><use xlink:href="#d" x="577.589844" y="327.75"/><use xlink:href="#e" x="591.4375" y="327.75"/><use xlink:href="#f" x="596.144531" y="327.75"/><use xlink:href="#e" x="605.949219" y="327.75"/><use xlink:href="#H" x="610.65625" y="327.75"/><use xlink:href="#h" x="627.140625" y="327.75"/><use xlink:href="#i" x="637.550781" y="327.75"/><use xlink:href="#e" x="648.292969" y="327.75"/><use xlink:href="#j" x="653" y="327.75"/><use xlink:href="#c" x="663.371094" y="327.75"/><use xlink:href="#k" x="668.742188" y="327.75"/><use xlink:href="#b" x="679.09375" y="327.75"/><use xlink:href="#l" x="685.773438" y="327.75"/><use xlink:href="#G" x="696.515625" y="327.75"/><use xlink:href="#m" x="701.886719" y="327.75"/><use xlink:href="#c" x="707.257813" y="327.75"/><use xlink:href="#c" x="712.628906" y="327.75"/><use xlink:href="#c" x="718" y="327.75"/></g><g style="fill:#00f;fill-opacity:1"><use xlink:href="#a" x="401.601562" y="423.949219"/><use xlink:href="#b" x="407.558594" y="423.949219"/><use xlink:href="#c" x="412.988281" y="423.949219"/><use xlink:href="#d" x="418.359375" y="423.949219"/><use xlink:href="#e" x="432.207031" y="423.949219"/><use xlink:href="#f" x="436.914062" y="423.949219"/><use xlink:href="#e" x="446.71875" y="423.949219"/><use xlink:href="#g" x="451.425781" y="423.949219"/><use xlink:href="#h" x="462.167969" y="423.949219"/><use xlink:href="#i" x="472.578125" y="423.949219"/><use xlink:href="#e" x="483.320312" y="423.949219"/><use xlink:href="#j" x="488.027344" y="423.949219"/><use xlink:href="#c" x="498.398438" y="423.949219"/><use xlink:href="#k" x="503.769531" y="423.949219"/><use xlink:href="#b" x="514.121094" y="423.949219"/><use xlink:href="#l" x="520.800781" y="423.949219"/><use xlink:href="#m" x="531.542969" y="423.949219"/><use xlink:href="#n" x="536.914062" y="423.949219"/><use xlink:href="#m" x="548.496094" y="423.949219"/><use xlink:href="#o" x="553.867188" y="423.949219"/></g><path d="M27.508203 21.807465c-5.245508-3.707618-10.996289-6.642188-17.076562-8.713672" style="fill:none;stroke-width:.15;stroke-linecap:butt;stroke-linejoin:miter;stroke:#000;stroke-opacity:1;stroke-miterlimit:10" transform="matrix(20 0 0 20 -10 95.799926)"/><path d="m27.813867 22.024652-.551953-.088867.247461-.130078.044531-.275977Z" style="fill-rule:evenodd;fill:#000;fill-opacity:1;stroke-width:.15;stroke-linecap:butt;stroke-linejoin:miter;stroke:#000;stroke-opacity:1;stroke-miterlimit:10" transform="matrix(20 0 0 20 -10 95.799926)"/><path d="M10.874805 13.81059c5.258984 3.672851 10.999218 6.602929 17.058789 8.707226" style="fill:none;stroke-width:.15;stroke-linecap:butt;stroke-linejoin:miter;stroke:#000;stroke-opacity:1;stroke-miterlimit:10" transform="matrix(20 0 0 20 -10 95.799926)"/><path d="m10.567773 13.59516.55254.085547-.24668.131445-.042774.276367Z" style="fill-rule:evenodd;fill:#000;fill-opacity:1;stroke-width:.15;stroke-linecap:butt;stroke-linejoin:miter;stroke:#000;stroke-opacity:1;stroke-miterlimit:10" transform="matrix(20 0 0 20 -10 95.799926)"/><g style="fill:#00f;fill-opacity:1"><use xlink:href="#a" x="347.601562" y="543.949219"/><use xlink:href="#b" x="353.558594" y="543.949219"/><use xlink:href="#c" x="358.988281" y="543.949219"/><use xlink:href="#d" x="364.359375" y="543.949219"/><use xlink:href="#e" x="378.207031" y="543.949219"/><use xlink:href="#f" x="382.914062" y="543.949219"/><use xlink:href="#e" x="392.71875" y="543.949219"/><use xlink:href="#g" x="397.425781" y="543.949219"/><use xlink:href="#h" x="408.167969" y="543.949219"/><use xlink:href="#i" x="418.578125" y="543.949219"/><use xlink:href="#e" x="429.320312" y="543.949219"/><use xlink:href="#j" x="434.027344" y="543.949219"/><use xlink:href="#c" x="444.398438" y="543.949219"/><use xlink:href="#k" x="449.769531" y="543.949219"/><use xlink:href="#b" x="460.121094" y="543.949219"/><use xlink:href="#l" x="466.800781" y="543.949219"/><use xlink:href="#m" x="477.542969" y="543.949219"/><use xlink:href="#n" x="482.914062" y="543.949219"/><use xlink:href="#m" x="494.496094" y="543.949219"/></g><g style="fill:#00f;fill-opacity:1"><use xlink:href="#I" x="347.601562" y="565.117188"/><use xlink:href="#J" x="358.363281" y="565.117188"/><use xlink:href="#c" x="369.125" y="565.117188"/><use xlink:href="#J" x="374.496094" y="565.117188"/><use xlink:href="#I" x="385.257812" y="565.117188"/><use xlink:href="#K" x="396.019531" y="565.117188"/><use xlink:href="#c" x="406.78125" y="565.117188"/><use xlink:href="#J" x="412.152344" y="565.117188"/><use xlink:href="#L" x="422.914062" y="565.117188"/><use xlink:href="#M" x="433.675781" y="565.117188"/><use xlink:href="#c" x="444.4375" y="565.117188"/><use xlink:href="#N" x="449.808594" y="565.117188"/><use xlink:href="#O" x="460.570312" y="565.117188"/><use xlink:href="#N" x="471.332031" y="565.117188"/></g><g style="fill:#000;fill-opacity:1"><use xlink:href="#F" x="608.601562" y="530.949219"/><use xlink:href="#A" x="619.324219" y="530.949219"/><use xlink:href="#B" x="628.132812" y="530.949219"/><use xlink:href="#c" x="638.894531" y="530.949219"/><use xlink:href="#d" x="644.265625" y="530.949219"/><use xlink:href="#e" x="658.113281" y="530.949219"/><use xlink:href="#f" x="662.820312" y="530.949219"/><use xlink:href="#e" x="672.625" y="530.949219"/><use xlink:href="#H" x="677.332031" y="530.949219"/><use xlink:href="#h" x="693.816406" y="530.949219"/><use xlink:href="#i" x="704.226562" y="530.949219"/><use xlink:href="#e" x="714.96875" y="530.949219"/><use xlink:href="#j" x="719.675781" y="530.949219"/><use xlink:href="#c" x="730.046875" y="530.949219"/><use xlink:href="#k" x="735.417969" y="530.949219"/><use xlink:href="#b" x="745.769531" y="530.949219"/><use xlink:href="#l" x="752.449219" y="530.949219"/></g><path d="M11.5875 25.257465c.176563-3.916797-.43418-7.829102-1.796289-11.505664" style="fill:none;stroke-width:.15;stroke-linecap:butt;stroke-linejoin:miter;stroke:#000;stroke-opacity:1;stroke-miterlimit:10" transform="matrix(20 0 0 20 -10 95.799926)"/><path d="m11.56875 25.632074-.217773-.514844.241601.140625.257422-.108984Z" style="fill-rule:evenodd;fill:#000;fill-opacity:1;stroke-width:.15;stroke-linecap:butt;stroke-linejoin:miter;stroke:#000;stroke-opacity:1;stroke-miterlimit:10" transform="matrix(20 0 0 20 -10 95.799926)"/><g style="fill:#00f;fill-opacity:1"><use xlink:href="#I" x="225.601563" y="511.699219"/><use xlink:href="#J" x="236.363281" y="511.699219"/><use xlink:href="#c" x="247.125" y="511.699219"/><use xlink:href="#J" x="252.496094" y="511.699219"/><use xlink:href="#I" x="263.257812" y="511.699219"/><use xlink:href="#K" x="274.019531" y="511.699219"/><use xlink:href="#c" x="284.78125" y="511.699219"/><use xlink:href="#J" x="290.152344" y="511.699219"/><use xlink:href="#L" x="300.914062" y="511.699219"/><use xlink:href="#M" x="311.675781" y="511.699219"/><use xlink:href="#c" x="322.4375" y="511.699219"/><use xlink:href="#N" x="327.808594" y="511.699219"/><use xlink:href="#O" x="338.570313" y="511.699219"/><use xlink:href="#N" x="349.332031" y="511.699219"/></g><path d="M151 496h10.75v19.75H151Z" style="stroke:none;fill-rule:evenodd;fill:#0f0;fill-opacity:1"/><use xlink:href="#J" x="151" y="511.75" style="fill:#000;fill-opacity:1"/><path d="M218.601562 156.949219h10.75v19.75h-10.75Z" style="stroke:none;fill-rule:evenodd;fill:#0f0;fill-opacity:1"/><use xlink:href="#N" x="218.601563" y="172.699219" style="fill:#000;fill-opacity:1"/><path d="M292.601562 157.949219h10.75v19.75h-10.75Z" style="stroke:none;fill-rule:evenodd;fill:#0f0;fill-opacity:1"/><use xlink:href="#O" x="292.601562" y="173.699219" style="fill:#000;fill-opacity:1"/><path d="M332.601562 249.949219h10.75v19.75h-10.75Z" style="stroke:none;fill-rule:evenodd;fill:#0f0;fill-opacity:1"/><use xlink:href="#M" x="332.601562" y="265.699219" style="fill:#000;fill-opacity:1"/><path d="M378.601562 301.949219h10.75v19.75h-10.75Z" style="stroke:none;fill-rule:evenodd;fill:#0f0;fill-opacity:1"/><use xlink:href="#P" x="378.601562" y="317.699219" style="fill:#000;fill-opacity:1"/><path d="M378.199219 423.148438h10.75v19.75h-10.75Z" style="stroke:none;fill-rule:evenodd;fill:#0f0;fill-opacity:1"/><use xlink:href="#Q" x="378.199219" y="438.898438" style="fill:#000;fill-opacity:1"/><path d="M363.601562 459.949219h10.75v19.75h-10.75Z" style="stroke:none;fill-rule:evenodd;fill:#0f0;fill-opacity:1"/><use xlink:href="#L" x="363.601562" y="475.699219" style="fill:#000;fill-opacity:1"/><path d="M210.199219 468.148438h10.75v19.75h-10.75Z" style="stroke:none;fill-rule:evenodd;fill:#0f0;fill-opacity:1"/><use xlink:href="#K" x="210.199219" y="483.898438" style="fill:#000;fill-opacity:1"/><g style="fill:#00f;fill-opacity:1"><use xlink:href="#a" x="49" y="170.148438"/><use xlink:href="#b" x="54.957031" y="170.148438"/><use xlink:href="#c" x="60.386719" y="170.148438"/><use xlink:href="#d" x="65.757812" y="170.148438"/><use xlink:href="#e" x="79.605469" y="170.148438"/><use xlink:href="#f" x="84.3125" y="170.148438"/><use xlink:href="#e" x="94.117188" y="170.148438"/><use xlink:href="#g" x="98.824219" y="170.148438"/><use xlink:href="#h" x="109.566406" y="170.148438"/><use xlink:href="#i" x="119.976562" y="170.148438"/><use xlink:href="#e" x="130.71875" y="170.148438"/><use xlink:href="#j" x="135.425781" y="170.148438"/><use xlink:href="#c" x="145.796875" y="170.148438"/><use xlink:href="#k" x="151.167969" y="170.148438"/><use xlink:href="#b" x="161.519531" y="170.148438"/><use xlink:href="#l" x="168.199219" y="170.148438"/><use xlink:href="#m" x="178.941406" y="170.148438"/><use xlink:href="#n" x="184.3125" y="170.148438"/><use xlink:href="#m" x="195.894531" y="170.148438"/><use xlink:href="#o" x="201.265625" y="170.148438"/></g><g style="fill:#00f;fill-opacity:1"><use xlink:href="#a" x="292" y="228.148438"/><use xlink:href="#b" x="297.957031" y="228.148438"/><use xlink:href="#c" x="303.386719" y="228.148438"/><use xlink:href="#d" x="308.757812" y="228.148438"/><use xlink:href="#e" x="322.605469" y="228.148438"/><use xlink:href="#f" x="327.3125" y="228.148438"/><use xlink:href="#e" x="337.117188" y="228.148438"/><use xlink:href="#g" x="341.824219" y="228.148438"/><use xlink:href="#h" x="352.566406" y="228.148438"/><use xlink:href="#i" x="362.976562" y="228.148438"/><use xlink:href="#e" x="373.71875" y="228.148438"/><use xlink:href="#j" x="378.425781" y="228.148438"/><use xlink:href="#c" x="388.796875" y="228.148438"/><use xlink:href="#k" x="394.167969" y="228.148438"/><use xlink:href="#b" x="404.519531" y="228.148438"/><use xlink:href="#l" x="411.199219" y="228.148438"/><use xlink:href="#m" x="421.941406" y="228.148438"/><use xlink:href="#n" x="427.3125" y="228.148438"/><use xlink:href="#m" x="438.894531" y="228.148438"/><use xlink:href="#o" x="444.265625" y="228.148438"/></g></svg>